<svg width="32" height="30" viewBox="0 0 32 30" fill="none" xmlns="http://www.w3.org/2000/svg">
<g id="Group">
<path id="Vector" d="M10.5376 5.7915V5.04144C10.5376 3.82663 11.5259 2.83838 12.7407 2.83838H19.2596C20.4743 2.83838 21.4627 3.82663 21.4627 5.04144V5.7915H23.3377V5.04144C23.3377 2.79275 21.5083 0.963379 19.2596 0.963379H12.7407C10.492 0.963379 8.6626 2.79275 8.6626 5.04144V5.7915H10.5376Z" fill="#AB1D22"/>
<path id="Vector_2" d="M28.6853 17.8305L19.4328 21.1066V21.4054C19.4328 23.2983 17.8928 24.8383 15.9999 24.8383C14.107 24.8383 12.567 23.2983 12.567 21.4054V21.1066L3.31444 17.8305C2.4815 17.5355 1.72275 17.1062 1.05713 16.5738V29.0362H30.9426V16.5737C30.277 17.1062 29.5183 17.5355 28.6853 17.8305Z" fill="#AB1D22"/>
<path id="Vector_3" d="M0 7.6665V10.4878C0 12.9932 1.57863 15.2268 3.94038 16.0631L12.5671 19.1177V16.5467H19.4329V19.1176L28.0596 16.0631C30.4214 15.2268 32 12.9932 32 10.4878V7.6665H0Z" fill="#AB1D22"/>
<path id="Vector_4" d="M17.5579 18.4219H14.4421V21.4057C14.4421 22.2647 15.141 22.9636 16 22.9636C16.859 22.9636 17.5579 22.2647 17.5579 21.4057V18.4219Z" fill="#AB1D22"/>
</g>
</svg>
