<svg width="270" height="103" viewBox="0 0 270 103" fill="none" xmlns="http://www.w3.org/2000/svg">
<g opacity="0.2" clip-path="url(#clip0_345_2847)">
<path fill-rule="evenodd" clip-rule="evenodd" d="M91.6766 20.5115C83.3312 25.4053 80.7609 25.7954 71.7701 31.2243C77.011 25.5056 78.8359 23.0866 82.1184 18.2931C73.7619 18.739 61.6556 19.7312 52.9764 21.6597C60.5317 17.6466 75.4644 13.143 83.3424 12.0839C81.5064 9.5646 66.7296 1.51607 63.0353 0C74.73 0.902952 89.0506 5.26165 95.9717 9.53116C98.7646 8.68394 101.557 8.61706 106.62 8.1823C105.33 10.4118 105.318 11.7049 100.311 14.9935C101.702 18.6944 98.4085 39.0387 95.6935 44.4564C95.5711 35.9286 94.8145 25.1712 91.6766 20.5115ZM30.7555 93.4945C25.9486 91.7221 22.4992 89.6486 18.7271 86.1037C19.862 82.9824 21.1528 80.5076 23.2781 77.3975C19.3613 77.9548 16.535 78.3784 13.1858 79.0473C10.4374 74.2427 9.2245 69.6499 7.83361 63.2512C7.07696 70.0178 6.79879 74.867 7.77797 80.2735C4.70688 81.1096 2.52596 81.8676 0.0112305 83.0047C3.53853 85.1896 6.39821 86.884 10.3817 88.7122C12.4848 93.2716 14.6879 96.3818 18.2375 99.8709C17.3918 96.8945 17.1915 94.4978 17.5031 91.3765C21.9428 92.6919 25.7149 93.3385 30.7555 93.4945ZM43.2068 25.8066C41.6935 27.7463 39.9799 31.3581 39.5237 33.0302C51.8192 34.7358 61.7446 41.0453 61.7446 41.0453C50.9179 39.1391 45.2764 39.3732 41.2595 39.7187C37.2538 40.12 36.4415 40.5994 36.4415 40.5994C33.5373 46.9201 31.8126 57.9004 31.8126 57.9115C29.8431 53.185 27.0057 43.7096 27.0057 43.6984C21.5534 46.6414 9.06872 58.4132 9.05759 58.4132C15.923 44.6125 22.8886 38.303 22.8886 38.303C20.4852 35.9063 14.2095 34.7023 9.61395 34.4905C12.0063 33.5095 18.1373 32.3502 22.8441 32.1495C27.5398 32.0046 30.3772 32.2945 30.3883 32.2945C34.6055 28.9613 40.9702 26.1522 43.2068 25.8066ZM56.2478 84.9555C54.0557 87.8873 52.2086 90.2283 49.7829 92.9372C45.6325 94.0631 42.3389 94.4867 38.2997 94.509C40.7699 95.7909 43.1845 96.5824 45.7438 97.0952C43.1734 99.4585 40.9702 101.142 38.4666 102.736C42.6727 101.721 48.2362 99.9155 52.3533 97.5077C54.4786 97.5634 56.5037 97.4296 57.9836 97.1732C57.6276 95.8913 57.3605 94.966 57.0489 93.3162C60.9434 90.2952 63.7697 87.5752 66.9743 84.3201C63.5472 86.7168 60.5762 88.5339 56.6372 90.4067C56.4592 88.5896 56.3257 86.7837 56.2478 84.9555Z" fill="#37A094"/>
<path fill-rule="evenodd" clip-rule="evenodd" d="M50.8066 58.2014C50.9735 60.0073 51.0848 64.4997 51.0848 66.1496C51.0848 67.6657 51.0625 72.7266 50.7844 74.9116L50.751 75.0899H60.643C65.4722 75.0899 70.6352 73.8525 70.6352 70.4079C70.6352 68.2453 68.6879 66.6401 65.0271 65.7594C67.7087 65.1909 69.5447 63.6971 69.5447 61.9693C69.5447 59.1601 65.4944 58.0899 61.7223 58.023L50.8066 58.0119V58.2014ZM58.451 59.9292C62.5791 59.9404 64.1147 60.6315 64.1147 62.4263C64.1147 62.9168 63.9366 63.3404 63.5694 63.686C62.7794 64.444 61.1994 64.823 59.2521 64.7561H59.152L58.017 67.1529H59.1742C61.4553 67.086 63.4248 67.6657 64.4374 68.6578C64.9047 69.1148 65.1384 69.6388 65.1384 70.1961C65.1384 72.1024 63.0687 73.0722 58.9962 73.0722C58.3063 73.0722 57.2047 73.0722 56.4926 73.0276C56.3479 70.5306 56.3368 67.1306 56.3368 66.1273C56.3368 64.9456 56.4036 62.2925 56.5037 60.0296C57.1491 59.9627 57.7945 59.9181 58.451 59.9292ZM93.4235 58.023H88.6278L88.828 62.326C88.9171 64.4663 88.9949 66.6512 89.1841 68.7581C88.8614 68.1115 88.5832 67.7548 87.1478 66.0604C87.1033 65.9935 82.1184 59.8289 80.3825 58.0788L80.3269 58.023H74.73L74.7411 58.1902C74.908 59.985 75.0193 64.4886 75.0193 66.1384C75.0193 67.6434 74.997 72.7155 74.7077 74.9004L74.6854 75.0676H79.6704L79.6593 74.9116C79.37 70.7312 79.37 66.5286 79.37 62.482V62.4709C79.5369 62.9502 79.7706 63.4073 80.5495 64.3325C80.6385 64.4329 89.1619 74.4211 89.6069 75.023L89.6515 75.0788H93.6461L93.6238 74.9116C93.3234 72.7155 93.3011 67.6545 93.3011 66.1496C93.3011 64.4886 93.4235 59.985 93.5793 58.2014L93.6016 58.0342L93.4235 58.023ZM99.2097 58.1902C99.3654 59.9961 99.4878 64.4886 99.4878 66.1496C99.4878 67.6545 99.4656 72.7266 99.1652 74.9116L99.1429 75.0899H105.063L105.04 74.9116C104.829 73.3509 104.762 70.3522 104.74 68.0447C104.985 68.0558 105.83 68.0893 105.83 68.0893L106.654 68.1227C114.465 68.1227 118.248 66.4394 118.248 62.9837C118.248 59.0374 112.929 58.1233 108.479 58.0342H99.1763L99.2097 58.1902ZM106.465 60.0742C109.235 60.0296 111.194 60.4866 112.128 61.423C112.54 61.8355 112.763 62.3594 112.763 62.9725C112.763 65.4473 109.313 65.9601 106.42 65.9601L105.252 65.9378C105.252 65.9378 104.962 65.9043 104.784 65.882C104.762 65.3135 104.751 64.5778 104.751 63.7194C104.751 62.627 104.762 61.3896 104.818 60.1856C105.363 60.1299 105.908 60.0853 106.465 60.0742ZM129.576 58.1902C129.743 59.9961 129.865 64.4886 129.865 66.1496C129.865 67.6545 129.843 72.7266 129.553 74.9116L129.531 75.0899H135.451L135.428 74.9116C135.228 73.3509 135.15 70.3522 135.128 68.0447L136.207 68.0893L137.042 68.1227C144.842 68.1227 148.636 66.4394 148.636 62.9837C148.636 59.0374 143.318 58.1233 138.867 58.0342H129.576V58.1902ZM136.831 60.0742C139.601 60.0296 141.56 60.4866 142.483 61.423C142.906 61.8355 143.128 62.3594 143.128 62.9725C143.128 65.4473 139.679 65.9601 136.775 65.9601L135.607 65.9378C135.607 65.9378 135.317 65.9043 135.139 65.882C135.117 65.3135 135.106 64.5666 135.106 63.7194C135.106 62.627 135.128 61.3896 135.173 60.1856C135.551 60.1411 136.196 60.0965 136.831 60.0742ZM156.57 58.0342H156.47L156.425 58.1345C155.324 60.5535 148.236 72.9607 147.134 74.8558L147.001 75.1011H152.086L152.119 75.0007C152.564 73.8414 153.132 72.5148 153.799 71.0991L158.005 71.0434L161.466 71.0768C161.466 71.0768 162.078 71.0879 162.223 71.0879C163.146 72.9273 163.814 74.3096 164.114 75.0007L164.148 75.1011H170.034L160.554 58.0453L156.57 58.0342ZM158.005 63.0506C158.473 63.8532 159.686 66.1384 161.065 68.825L160.609 68.8361L158.005 68.8696C158.005 68.8696 155.313 68.8361 154.89 68.825C155.891 66.8742 156.926 64.9568 158.005 63.0506ZM172.359 58.1902C172.515 59.985 172.649 64.4886 172.649 66.1384C172.649 67.6434 172.615 72.7155 172.326 74.9004L172.304 75.0788H178.223L178.201 74.9116C177.901 72.7155 177.879 67.6545 177.879 66.1496C177.879 64.9679 177.945 62.3148 178.045 60.1968C178.58 60.1522 179.114 60.1188 179.659 60.0965C182.418 60.0519 184.377 60.5089 185.311 61.4342C185.745 61.8466 185.957 62.3706 185.957 62.9725C185.957 64.9456 183.642 65.9378 181.495 66.027C181.072 66.0493 180.649 66.027 180.237 65.9712L179.837 65.9155L180.104 66.2276C182.174 68.6912 185.334 72.9719 186.658 75.023L186.713 75.0899H193.056L192.867 74.8335C192.655 74.5548 188.494 69.6722 186.725 67.5876C186.725 67.5876 186.658 67.5096 186.613 67.4538C189.829 66.6735 191.42 65.202 191.42 62.9614C191.42 59.0151 186.101 58.101 181.639 58.023L172.348 58.0119L172.359 58.1902ZM201.468 58.0119H195.793L195.815 58.1791C195.982 59.985 196.094 64.4774 196.094 66.1384C196.094 67.6322 196.071 72.7043 195.782 74.9004L195.76 75.0788H201.679L201.646 74.9004C201.357 72.7155 201.335 67.6434 201.335 66.1384C201.335 64.4774 201.457 59.9738 201.613 58.1791L201.624 58.0119H201.468ZM206.998 58.2014C207.165 59.9961 207.288 64.4886 207.288 66.1496C207.288 67.6657 207.265 72.7266 206.976 74.9116L206.954 75.0899H216.835C221.664 75.0899 226.838 73.8525 226.838 70.4079C226.838 68.2453 224.88 66.6401 221.208 65.7594C223.889 65.1909 225.725 63.6971 225.725 61.9693C225.725 59.1601 221.686 58.0899 217.903 58.023L206.998 58.0119V58.2014ZM214.643 59.9292C218.782 59.9404 220.317 60.6315 220.317 62.4263C220.317 62.9168 220.128 63.3404 219.761 63.686C218.982 64.444 217.402 64.823 215.444 64.7561H215.344L214.209 67.1529H215.366C217.647 67.086 219.605 67.6657 220.629 68.6578C221.096 69.1148 221.33 69.6388 221.33 70.1961C221.33 72.1024 219.271 73.0722 215.199 73.0722C214.509 73.0722 213.396 73.0722 212.695 73.0276C212.551 70.5306 212.551 67.1306 212.551 66.1273C212.551 64.9234 212.606 62.2925 212.718 60.0296C213.352 59.9627 213.997 59.9181 214.643 59.9292ZM241.559 58.0119H237.576L237.531 58.101C236.363 60.6761 228.863 73.7522 228.24 74.8335L228.106 75.0676H233.192L233.225 74.9562C233.737 73.6296 234.293 72.3365 234.905 71.0545C235.083 71.0545 239.1 70.9988 239.1 70.9988L242.561 71.0434C242.561 71.0434 243.161 71.0545 243.317 71.0545C244.241 72.8827 244.908 74.2761 245.209 74.9673L245.253 75.0676H251.128L241.659 58.0007L241.559 58.0119ZM239.122 63.0394C239.601 63.842 240.802 66.1273 242.182 68.8138L241.737 68.825L239.122 68.8584L236.018 68.8027C236.997 66.863 238.032 64.9345 239.122 63.0394ZM252.608 62.4374C252.608 65.4361 256.369 66.6512 259.696 67.7214C262.278 68.5575 264.937 69.427 264.937 70.8538C264.937 71.2886 264.804 71.6342 264.514 71.9129C263.914 72.5037 262.634 72.7489 260.642 72.6709C258.695 72.5929 256.447 72.0912 253.977 71.166L252.931 70.7758V71.4335V74.4991L253.61 74.6217L254.022 74.6886C255.268 74.9339 257.627 75.3798 260.019 75.3798C266.261 75.3798 269.989 73.3955 269.989 70.0958C269.989 67.0191 266.139 65.7929 262.745 64.7115C260.242 63.9089 257.649 63.084 257.649 61.7686C257.649 61.3896 257.649 60.2525 260.854 60.2525C263.257 60.2525 265.605 61.0329 266.873 61.4565L268.108 61.8466L268.086 61.2112V58.1122L266.873 57.945C265.672 57.7555 263.658 57.4433 261.566 57.4433C256.214 57.421 252.608 59.4388 252.608 62.4374Z" fill="black"/>
</g>
<defs>
<clipPath id="clip0_345_2847">
<rect width="270" height="102.736" fill="white"/>
</clipPath>
</defs>
</svg>
