<svg width="36" height="36" viewBox="0 0 36 36" fill="none" xmlns="http://www.w3.org/2000/svg">
<g id="open-book 1">
<g id="Group">
<g id="Group_2">
<g id="Group_3">
<path id="Vector" d="M5.50739 4.24805C5.50642 4.24805 5.50533 4.24805 5.50436 4.24805C5.16387 4.24805 4.84363 4.38077 4.60181 4.62199C4.35732 4.86587 4.22266 5.1906 4.22266 5.53629V24.8533C4.22266 25.5617 4.8012 26.1394 5.51248 26.1412C8.51103 26.1484 13.5348 26.7733 17.0005 30.4001V10.1843C17.0005 9.94419 16.9392 9.71861 16.8234 9.53194C13.9789 4.95108 8.51273 4.25508 5.50739 4.24805Z" fill="#03466E"/>
<path id="Vector_2" d="M31.7777 24.8535V5.53629C31.7777 5.1906 31.6431 4.86587 31.3986 4.62199C31.1568 4.38077 30.8363 4.24805 30.4962 4.24805C30.4951 4.24805 30.494 4.24805 30.493 4.24805C27.4878 4.2552 22.0216 4.9512 19.177 9.53206C19.0612 9.71873 19 9.94431 19 10.1844V30.4001C22.4657 26.7733 27.4895 26.1484 30.488 26.1412C31.1992 26.1394 31.7777 25.5617 31.7777 24.8535Z" fill="#03466E"/>
<path id="Vector_3" d="M34.7124 8.70312H33.7783V24.8536C33.7783 26.6622 32.3047 28.137 30.4933 28.1415C27.9499 28.1476 23.7562 28.6449 20.7861 31.4559C25.9229 30.1982 31.3379 31.0158 34.424 31.7191C34.8093 31.8068 35.2075 31.7162 35.5162 31.4701C35.8239 31.2247 36.0004 30.8577 36.0004 30.4639V9.99113C36.0005 9.28095 35.4225 8.70312 34.7124 8.70312Z" fill="#03466E"/>
<path id="Vector_4" d="M2.22207 24.8536V8.70312H1.288C0.577941 8.70312 0 9.28095 0 9.99113V30.4636C0 30.8575 0.176485 31.2243 0.484123 31.4697C0.792609 31.7157 1.19043 31.8067 1.57637 31.7187C4.66244 31.0153 10.0776 30.1979 15.2141 31.4556C12.2442 28.6446 8.05045 28.1474 5.50705 28.1414C3.69577 28.137 2.22207 26.6622 2.22207 24.8536Z" fill="#03466E"/>
</g>
</g>
</g>
</g>
</svg>
