<svg width="36" height="36" viewBox="0 0 36 36" fill="none" xmlns="http://www.w3.org/2000/svg">
<g id="business-trip 1" clip-path="url(#clip0_345_2030)">
<path id="Vector" d="M21.5398 4.8C21.2998 3.396 20.1958 0 14.9998 0C9.80382 0 8.69982 3.396 8.46582 4.8H9.66582C9.88782 3.636 10.8478 1.2 14.9998 1.2C19.1218 1.2 20.0998 3.636 20.3278 4.8H21.5398Z" fill="#03466E"/>
<path id="Vector_2" d="M1.20022 12.552V6.6C1.20022 6.44087 1.26343 6.28826 1.37595 6.17574C1.48848 6.06321 1.64109 6 1.80022 6H28.2002C28.3593 6 28.512 6.06321 28.6245 6.17574C28.737 6.28826 28.8002 6.44087 28.8002 6.6V12.552C28.8011 12.6617 28.7714 12.7695 28.7145 12.8632C28.6576 12.957 28.5757 13.0331 28.478 13.083C27.278 13.716 24.23 14.7882 17.285 14.985C17.1592 14.6388 16.9302 14.3396 16.6289 14.1277C16.3276 13.9158 15.9686 13.8014 15.6002 13.8H14.4002C14.0319 13.8014 13.6728 13.9158 13.3716 14.1277C13.0703 14.3396 12.8413 14.6388 12.7154 14.985C5.77042 14.7882 2.72302 13.716 1.51702 13.08C1.4207 13.0297 1.34015 12.9538 1.28425 12.8606C1.22834 12.7675 1.19926 12.6607 1.20022 12.552Z" fill="#03466E"/>
<path id="Vector_3" d="M15.5998 15H14.3998C14.0684 15 13.7998 15.2686 13.7998 15.6V18C13.7998 18.3314 14.0684 18.6 14.3998 18.6H15.5998C15.9312 18.6 16.1998 18.3314 16.1998 18V15.6C16.1998 15.2686 15.9312 15 15.5998 15Z" fill="#03466E"/>
<path id="Vector_4" d="M2.3998 25.7996C2.24067 25.7996 2.08806 25.7364 1.97554 25.6239C1.86302 25.5114 1.7998 25.3587 1.7998 25.1996V14.5244C3.4576 15.1874 6.6778 16.0058 12.5998 16.1816V17.9996C12.5998 18.477 12.7894 18.9348 13.127 19.2724C13.4646 19.61 13.9224 19.7996 14.3998 19.7996H15.5998C16.0772 19.7996 16.535 19.61 16.8726 19.2724C17.2102 18.9348 17.3998 18.477 17.3998 17.9996V16.1816C23.3254 16.0058 26.5456 15.1862 28.1998 14.525V19.9532C27.9682 20.2096 27.7312 20.4742 27.4888 20.747L20.9824 18.1496C20.7572 18.0577 20.5098 18.0349 20.2716 18.0842C20.0334 18.1334 19.8153 18.2525 19.645 18.4262L18.6562 19.415C18.5317 19.5417 18.4355 19.6934 18.3741 19.86C18.3127 20.0266 18.2873 20.2044 18.2998 20.3816C18.3124 20.5565 18.3622 20.7267 18.4459 20.8808C18.5296 21.0349 18.6453 21.1693 18.7852 21.275L23.803 25.0286C23.5828 25.2914 23.3686 25.5476 23.1586 25.7996H2.3998Z" fill="#03466E"/>
<path id="Vector_5" d="M33.5614 21.109C32.7292 21.9406 31.6162 22.969 30.343 24.0886C30.2498 24.1704 30.1843 24.279 30.1554 24.3996C30.1265 24.5201 30.1357 24.6467 30.1816 24.7618L32.9236 31.7068L31.885 32.6938L27.745 27.1678C27.696 27.1024 27.6341 27.0476 27.5631 27.007C27.4922 26.9663 27.4137 26.9406 27.3324 26.9314C27.2512 26.9222 27.1689 26.9296 27.0906 26.9534C27.0124 26.9771 26.9398 27.0166 26.8774 27.0694C24.7174 28.8994 22.7542 30.4936 22.0174 31.0936C21.9291 31.1654 21.863 31.2608 21.8269 31.3688C21.7907 31.4767 21.7861 31.5927 21.8134 31.7032L22.3852 33.955L21.5404 34.8064L20.809 33.3484C20.7664 33.2634 20.7042 33.1898 20.6275 33.1335C20.5508 33.0773 20.4619 33.0401 20.368 33.025C20.3364 33.02 20.3045 33.0174 20.2726 33.0172C20.1135 33.0172 19.9609 33.0805 19.8484 33.193L19.3204 33.7204C19.208 33.8321 19.0559 33.8949 18.8974 33.8949C18.7389 33.8949 18.5868 33.8321 18.4744 33.7204C18.4179 33.666 18.373 33.6007 18.3423 33.5286C18.3116 33.4564 18.2958 33.3788 18.2958 33.3004C18.2958 33.222 18.3116 33.1444 18.3423 33.0722C18.373 33 18.4179 32.9348 18.4744 32.8804L19.0084 32.347C19.0754 32.2796 19.1254 32.1973 19.1543 32.1069C19.1833 32.0164 19.1904 31.9204 19.1749 31.8266C19.1595 31.7329 19.1221 31.6442 19.0657 31.5678C19.0093 31.4913 18.9356 31.4294 18.8506 31.387L17.4004 30.6682L18.2356 29.8318L20.497 30.3898C20.6075 30.4176 20.7236 30.4131 20.8316 30.377C20.9397 30.3408 21.0351 30.2745 21.1066 30.1858C21.7102 29.4424 23.3098 27.4792 25.132 25.3156C25.1845 25.2531 25.2238 25.1806 25.2473 25.1024C25.2708 25.0242 25.2781 24.942 25.2688 24.8609C25.2595 24.7798 25.2337 24.7015 25.1931 24.6307C25.1524 24.5599 25.0977 24.4981 25.0324 24.4492L19.5124 20.26L20.5396 19.2646L27.4396 22.0186C27.5547 22.0646 27.6812 22.0738 27.8017 22.045C27.9223 22.0163 28.0309 21.9508 28.1128 21.8578C29.2366 20.5786 30.2662 19.4662 31.0936 18.6382C31.7017 17.959 32.5328 17.52 33.4366 17.4004C33.7966 17.406 34.1402 17.5514 34.3948 17.806C34.6493 18.0606 34.7948 18.4042 34.8004 18.7642C34.6811 19.6684 34.242 20.5 33.5626 21.1084L33.5614 21.109Z" fill="#03466E"/>
</g>
<defs>
<clipPath id="clip0_345_2030">
<rect width="36" height="36" fill="white"/>
</clipPath>
</defs>
</svg>
