<svg width="32" height="32" viewBox="0 0 32 32" fill="none" xmlns="http://www.w3.org/2000/svg">
<g id="icon / car 1">
<path id="Vector" d="M28 13H29C29.552 13 30 12.552 30 12C30 11.448 29.552 11 29 11H26.566L24.731 7.942C24.008 6.737 22.706 6 21.301 6H10.699C9.294 6 7.992 6.737 7.269 7.942L5.434 11H3C2.448 11 2 11.448 2 12C2 12.552 2.448 13 3 13H4L2.8 14.601C2.281 15.293 2 16.135 2 17.001V21.001C2 22.106 2.895 23.001 4 23.001V24.001C4 25.106 4.895 26.001 6 26.001H8C9.105 26.001 10 25.106 10 24.001V23.001H22V24.001C22 25.106 22.895 26.001 24 26.001H26C27.105 26.001 28 25.106 28 24.001V23.001C29.105 23.001 30 22.106 30 21.001V17.001C30 16.136 29.719 15.293 29.2 14.601L28 13ZM6.5 20C5.672 20 5 19.328 5 18.5C5 17.672 5.672 17 6.5 17C7.328 17 8 17.672 8 18.5C8 19.328 7.328 20 6.5 20ZM23.957 12.16C23.135 12.708 22.17 13 21.183 13H10.816C9.829 13 8.864 12.708 8.043 12.161L7.348 11.698L8.984 8.972C9.345 8.37 9.996 8.001 10.699 8.001H21.302C22.005 8.001 22.656 8.37 23.017 8.972L24.653 11.698L23.958 12.161L23.957 12.16ZM25.5 20C24.672 20 24 19.328 24 18.5C24 17.672 24.672 17 25.5 17C26.328 17 27 17.672 27 18.5C27 19.328 26.328 20 25.5 20Z" fill="#AB1D22"/>
</g>
</svg>
