<svg width="36" height="36" viewBox="0 0 36 36" fill="none" xmlns="http://www.w3.org/2000/svg">
<path d="M17.9898 4.74525C10.1428 -2.118 0.165634 3.91225 0.00202879 12.0872C-0.0396633 14.1706 0.561744 16.2 1.75886 18.071H9.51824L10.8984 15.7707C11.2991 15.1028 12.2689 15.0813 12.6924 15.7471L15.6043 20.3229L19.849 11.3622C20.2191 10.5803 21.3223 10.5555 21.7306 11.3137L25.3691 18.071H34.2207C40.7776 7.82301 27.8188 -3.85156 17.9898 4.74525Z" fill="#03466E"/>
<path d="M23.8108 19.626L20.8624 14.1504L16.6931 22.9521C16.3384 23.701 15.2951 23.766 14.8503 23.0669L11.8292 18.3195L11.0197 19.6686C10.8291 19.9862 10.4859 20.1806 10.1154 20.1806H3.42725C3.6369 20.4 2.51951 19.2849 17.246 33.935C17.6573 34.3443 18.3222 34.3444 18.7335 33.935C33.2334 19.5103 32.343 20.3996 32.5523 20.1806H24.7393C24.3513 20.1806 23.9947 19.9676 23.8108 19.626Z" fill="#03466E"/>
</svg>
