<svg width="36" height="36" viewBox="0 0 36 36" fill="none" xmlns="http://www.w3.org/2000/svg">
<g clip-path="url(#clip0_345_1816)">
<path d="M34.6011 27.763C32.761 29.3345 30.7193 30.6239 28.5452 31.6083L26.5963 26.0035H29.3644V24.9472C29.3644 21.6232 26.6601 18.9188 23.336 18.9188H13.61L12.9719 16.8058H22.3318V14.6931H12.334L9.0297 3.7519L9.01213 3.69368L8.98787 3.63778C8.33797 2.13625 7.13857 0.987061 5.61053 0.402199C4.0825 -0.182592 2.42234 -0.12817 0.935859 0.555622L0.107153 0.936787L7.45463 26.0034H9.59938L7.64285 31.6931C5.39819 30.6985 3.2919 29.3796 1.39887 27.7629L0.0268555 29.3694C5.03327 33.6452 11.4163 36 18 36C24.5837 36 30.9667 33.6452 35.9731 29.3694L34.6011 27.763ZM17.9999 33.8873C15.1234 33.8874 12.2886 33.4 9.61006 32.4691L11.8334 26.0034H24.3593L26.5835 32.4001C23.8481 33.3754 20.946 33.8873 17.9999 33.8873Z" fill="#03466E"/>
</g>
<defs>
<clipPath id="clip0_345_1816">
<rect width="36" height="36" fill="white"/>
</clipPath>
</defs>
</svg>
