<svg width="32" height="32" viewBox="0 0 32 32" fill="none" xmlns="http://www.w3.org/2000/svg">
<g clip-path="url(#clip0_316_36)">
<path d="M31.3328 15.3384C31.3234 15.3384 31.3139 15.3386 31.3044 15.339C30.9356 15.339 30.6366 15.638 30.6366 16.0068C30.6256 23.4324 25.0707 29.68 17.6975 30.5598L18.5044 29.7529C18.7657 29.4917 18.7657 29.0681 18.5044 28.8068C18.2431 28.5455 17.8195 28.5455 17.5583 28.8068L15.5131 30.852C15.2518 31.1124 15.2511 31.5352 15.5114 31.7965C15.6372 31.9226 15.808 31.9934 15.9862 31.9929C24.8195 31.9929 31.9847 24.8402 32.0001 16.0069C32.0004 15.638 31.7016 15.3387 31.3328 15.3384Z" fill="#AB1D22"/>
<path d="M16.6122 0.438184C16.5444 0.274357 16.4142 0.144249 16.2504 0.0764229C16.1721 0.0373577 16.0872 0.013749 16 0.00683594C7.1666 0.0145316 0.00769565 7.17351 0 16.0069C0 16.3911 0.311478 16.7025 0.695674 16.7025C1.07987 16.7025 1.39135 16.3911 1.39135 16.0069C1.40237 8.58129 6.95719 2.33366 14.3305 1.45381L13.4817 2.26081C13.2205 2.52207 13.2205 2.94566 13.4817 3.20692C13.743 3.46818 14.1666 3.46818 14.4278 3.20692L16.4731 1.1617C16.6603 0.970227 16.715 0.685422 16.6122 0.438184Z" fill="#AB1D22"/>
<path d="M16 17.1059C16.607 17.1059 17.0991 16.6138 17.0991 16.0068C17.0991 15.3998 16.607 14.9077 16 14.9077C15.393 14.9077 14.9009 15.3998 14.9009 16.0068C14.9009 16.6138 15.393 17.1059 16 17.1059Z" fill="#AB1D22"/>
<path d="M25.127 18.2054L24.1392 17.2733C24.2824 16.3979 24.2824 15.5051 24.1392 14.6298L25.127 13.6977C25.6391 13.2487 25.7509 12.4951 25.3913 11.9168L24.2087 9.85761C23.868 9.28219 23.1827 9.00815 22.5392 9.18978L21.2314 9.57932C20.5522 8.99361 19.7813 8.52358 18.9496 8.18804L18.6296 6.86628C18.4954 6.20804 17.91 5.73972 17.2383 5.75322H14.8175C14.1458 5.73965 13.5604 6.20798 13.4262 6.86628L13.1061 8.18804C12.6601 8.37671 12.2316 8.60491 11.8261 8.86976C11.4441 9.08967 11.0812 9.34095 10.7409 9.62106L9.43311 9.23152C8.7898 9.05491 8.10756 9.32778 7.76354 9.89934L6.6227 11.9585C6.26309 12.5368 6.37493 13.2904 6.88702 13.7393L7.87487 14.6715C7.73054 15.5468 7.73054 16.4397 7.87487 17.3149L6.88702 18.2611C6.37956 18.7137 6.27365 19.4669 6.63659 20.0419L7.81917 22.1011C8.15993 22.6765 8.84517 22.9505 9.48874 22.7689L10.7965 22.3793C11.4804 22.9657 12.2559 23.4357 13.0922 23.7706L13.4122 25.1619C13.5464 25.8201 14.1318 26.2885 14.8035 26.275H17.1826C17.9056 26.2938 18.5224 25.7556 18.6018 25.0367L18.9218 23.6454C19.3403 23.4889 19.7451 23.2981 20.1322 23.0749C20.5132 22.8535 20.8761 22.6023 21.2174 22.3236L22.5252 22.7132C23.1685 22.8898 23.8508 22.6169 24.1948 22.0454L25.3913 19.9863C25.7509 19.408 25.6391 18.6543 25.127 18.2054ZM20.1739 16.6611L18.6852 19.2489C18.4412 19.6401 18.0191 19.8851 17.5583 19.9028H14.4974C14.0366 19.8851 13.6145 19.6402 13.3705 19.2489L11.8261 16.6611C11.5925 16.2564 11.5925 15.7579 11.8261 15.3533L13.3148 12.7655C13.5616 12.3702 13.9899 12.1247 14.4557 12.1115H17.447C17.9172 12.1086 18.3528 12.3582 18.5879 12.7655L20.1739 15.3533C20.4076 15.7579 20.4076 16.2564 20.1739 16.6611Z" fill="#AB1D22"/>
</g>
<defs>
<clipPath id="clip0_316_36">
<rect width="32" height="32" fill="white"/>
</clipPath>
</defs>
</svg>
