<svg width="32" height="32" viewBox="0 0 32 32" fill="none" xmlns="http://www.w3.org/2000/svg">
<g id="icon / share 1" clip-path="url(#clip0_316_56)">
<path id="Vector" d="M23.3334 0C18.5547 0 14.6667 3.888 14.6667 8.66667C14.6667 13.4453 18.5547 17.3333 23.3334 17.3333C28.1121 17.3333 32.0001 13.4453 32.0001 8.66667C32.0001 3.888 28.1121 0 23.3334 0ZM26.2761 11.6093C26.0161 11.8693 25.6747 12 25.3334 12C24.9921 12 24.6507 11.8693 24.3907 11.6093L22.3907 9.60933C22.1401 9.36 22.0001 9.02133 22.0001 8.66667V5.33333C22.0001 4.596 22.5974 4 23.3334 4C24.0694 4 24.6667 4.596 24.6667 5.33333V8.11467L26.2761 9.724C26.7974 10.2453 26.7974 11.088 26.2761 11.6093Z" fill="#AB1D22"/>
<path id="Vector_2" d="M0.654667 16.0029C0.292 16.0096 0 16.3056 0 16.6696V28.6669C0 29.0349 0.298667 29.3336 0.666667 29.3336H3.496C3.79467 29.3336 4.056 29.1362 4.13733 28.8496L7.088 18.4522C7.27867 17.7802 6.91867 17.0736 6.26133 16.8349C5.05333 16.3949 3.2 15.9602 0.654667 16.0029Z" fill="#AB1D22"/>
<path id="Vector_3" d="M29.3334 23.3334C26.6667 23.3334 21.3334 26.7081 18.6667 26.7081C16.0001 26.7081 13.0001 24.6668 13.0001 24.6668C13.0001 24.6668 16.5921 25.3334 18.6667 25.3334C20.7414 25.3334 21.3334 24.6254 21.3334 23.6668C21.3334 21.3334 17.3707 20.9708 15.3654 20.6654C13.3974 19.5694 12.3747 18.7028 9.11472 18.4268C9.09605 18.6174 9.06672 18.8068 9.01338 18.9948L6.33472 28.4348C9.36805 29.8148 14.5921 32.0001 17.3334 32.0001C21.3334 32.0001 32.0001 26.6668 32.0001 25.3334C32.0001 24.0001 30.6667 23.3334 29.3334 23.3334Z" fill="#AB1D22"/>
</g>
<defs>
<clipPath id="clip0_316_56">
<rect width="32" height="32" fill="white"/>
</clipPath>
</defs>
</svg>
