<svg width="36" height="36" viewBox="0 0 36 36" fill="none" xmlns="http://www.w3.org/2000/svg">
<g clip-path="url(#clip0_345_1790)">
<path d="M12.6141 30.3775C13.2633 30.9475 13.9335 31.5357 14.6229 32.1454C14.6276 32.1495 14.6324 32.1538 14.6372 32.158L16.9306 34.1389C17.2378 34.4044 17.6192 34.5371 18.0005 34.5371C18.3819 34.5371 18.7634 34.4043 19.0706 34.1389L21.3636 32.158C21.3684 32.1538 21.3731 32.1497 21.3778 32.1455C25.9177 28.1305 29.3215 25.0568 31.7841 22.0589C34.6604 18.5577 36.0001 15.3919 36.0001 12.0962C36.0001 6.13355 31.3295 1.46289 25.367 1.46289C22.6871 1.46289 20.0392 2.47198 18.0005 4.2212C15.9613 2.47187 13.3134 1.46289 10.6334 1.46289C4.67076 1.46278 0 6.13355 0 12.0961C0 19.3037 5.01819 23.7091 12.6141 30.3775ZM11.4531 14.7267H15.8176V10.362H20.1823V14.7267H24.5469V19.0912H20.1823V23.4557H15.8176V19.0912H11.4531V14.7267Z" fill="#03466E"/>
</g>
<defs>
<clipPath id="clip0_345_1790">
<rect width="36" height="36" fill="white"/>
</clipPath>
</defs>
</svg>
