<svg width="36" height="36" viewBox="0 0 36 36" fill="none" xmlns="http://www.w3.org/2000/svg">
<g id="home 1" clip-path="url(#clip0_345_1945)">
<g id="Group">
<g id="Group_2">
<path id="Vector" d="M35.3954 16.0938L19.2434 1.37616C18.5344 0.730059 17.4653 0.730129 16.7566 1.37609L0.604549 16.0939C0.0366358 16.6114 -0.150958 17.4087 0.126495 18.1251C0.404018 18.8415 1.07972 19.3044 1.84802 19.3044H4.42778V34.0504C4.42778 34.635 4.90183 35.1091 5.48648 35.1091H14.3398C14.9244 35.1091 15.3985 34.6351 15.3985 34.0504V25.0971H20.6017V34.0505C20.6017 34.6351 21.0758 35.1091 21.6604 35.1091H30.5133C31.098 35.1091 31.572 34.6352 31.572 34.0505V19.3044H34.1523C34.9205 19.3044 35.5963 18.8415 35.8738 18.1251C36.1509 17.4086 35.9633 16.6114 35.3954 16.0938Z" fill="#03466E"/>
</g>
</g>
<g id="Group_3">
<g id="Group_4">
<path id="Vector_2" d="M31.2955 3.00488H24.1855L32.3542 10.4324V4.06351C32.3542 3.47886 31.8802 3.00488 31.2955 3.00488Z" fill="#03466E"/>
</g>
</g>
</g>
<defs>
<clipPath id="clip0_345_1945">
<rect width="36" height="36" fill="white"/>
</clipPath>
</defs>
</svg>
