<svg width="270" height="69" viewBox="0 0 270 69" fill="none" xmlns="http://www.w3.org/2000/svg">
<g opacity="0.2" clip-path="url(#clip0_345_2855)">
<path fill-rule="evenodd" clip-rule="evenodd" d="M1.67653 18.9761C3.70521 18.9761 5.11889 19.4053 5.99675 20.2823C6.97907 21.2635 7.41885 22.8844 7.41885 25.5371V58.6701C7.41885 63.255 6.45674 65.3001 0.778448 65.3001H0V67.3333H25.5186V65.3102L24.7486 65.3001C19.1242 65.2327 18.1756 63.1995 18.1756 58.6701V25.5354C18.1756 22.8912 18.6137 21.277 19.596 20.2974C20.4823 19.407 21.9212 18.9744 23.992 18.9744H25.5169V16.9126H0V18.9744H1.67653V18.9761Z" fill="#091C5A"/>
<path fill-rule="evenodd" clip-rule="evenodd" d="M83.2923 50.431C83.2923 50.431 82.8492 48.3624 82.7851 47.2044V32.0711C82.6857 23.2463 83.8905 18.8532 76.1666 18.8869V16.9041H93.9345V18.8869C85.9798 18.8549 86.9807 23.248 86.9352 32.0711V67.4074L84.4061 67.3804L46.038 27.2707C46.038 27.2707 46.4693 29.336 46.5334 30.4957V55.2768C46.316 64.3171 47.4365 65.4095 53.2664 65.3034V67.3687H34.7438V65.3034C40.5821 65.3102 41.7296 64.5342 41.7228 54.5396V55.1371V30.7145L41.6757 26.8382C41.893 21.8207 40.0379 18.9105 34.3748 18.9576V16.9732H51.4282L83.2923 50.431Z" fill="#091C5A"/>
<path fill-rule="evenodd" clip-rule="evenodd" d="M147.61 15.9414H145.652L145.561 16.6113C145.428 17.6111 145.034 19.2858 143.893 19.2858C143.568 19.2858 142.758 19.1327 141.844 18.7152C137.878 16.9984 132.739 15.9414 128.412 15.9414C119.992 15.9414 112.354 18.9542 106.898 24.4279C101.887 29.4572 99.146 36.3026 99.1847 43.7001C99.2201 50.7862 102.009 56.615 107.717 61.5281C113.468 66.4429 119.911 68.5385 129.275 68.5385C137.074 68.5385 141.539 67.4192 148.392 63.7448L149.592 63.0951V49.8739C149.592 44.2387 150.283 43.3618 154.872 43.1766L155.619 43.148V41.1837H133.195V43.148L133.942 43.1766C139.054 43.3752 140.02 44.2909 140.02 48.9498V61.2016C136.227 63.7011 133.47 64.6504 129.994 64.6504C124.85 64.6504 120.272 62.6642 116.757 59.1565C112.641 55.0412 110.632 49.0475 110.632 42.2744C110.632 34.9779 112.577 28.7536 116.584 24.7544C119.773 21.5682 124.009 19.7992 128.842 19.7992C133.158 19.7992 138.173 21.649 141.612 24.374C144.409 26.6614 145.86 28.8748 146.955 32.5323L147.122 33.0861H149.036L147.61 15.9414Z" fill="#091C5A"/>
<path fill-rule="evenodd" clip-rule="evenodd" d="M245.825 67.197C247.071 67.0085 248.394 67.0371 249.388 66.1248C253.601 66.7711 257.87 65.731 261.181 63.4132C262.925 62.0078 264.497 60.3768 265.769 58.5943C266.888 57.0256 267.771 55.563 268.342 53.8058C268.769 52.7218 269.106 51.5941 269.36 50.4361C270.561 44.9759 269.929 38.8694 268.15 33.6768C267.825 32.7124 267.453 31.7782 267.048 30.8878C264.827 26.3029 261.805 21.3561 257.151 18.456C254.529 16.8234 252.116 14.2969 250.635 11.6813C249.83 10.9575 249.058 9.99814 248.017 9.82478C248.301 10.2944 248.615 10.7539 248.692 11.3026L248.632 11.38C247.526 11.412 246.66 10.8279 245.904 10.121L246.738 9.36527C246.423 9.20537 246.062 9.14478 245.713 9.06399C242.53 8.70211 239.912 10.1698 237.088 10.8767L237.044 11.0333C238.778 11.8042 239.14 13.7129 240.15 15.0039C240.399 14.7043 240.825 14.9231 241.174 14.8961C241.678 14.9248 242.151 15.2883 242.64 15.1604C242.655 14.7396 242.418 14.4047 242.342 14.0276C242.64 13.8862 243.002 14.0108 243.336 14.0276C244.249 14.5612 245.713 13.9334 246.283 15.1604C245.242 15.226 244.264 15.4448 243.287 15.6822C243.351 16.076 243.745 16.3891 243.713 16.7846C242.878 16.4379 241.993 16.2191 241.063 16.1097L241.016 16.2494C242.199 17.6346 243.823 18.456 245.479 18.9425C247.862 19.4928 249.958 18.3601 252.258 18.7539C257.906 21.3376 262.73 27.2472 264.827 32.8555C264.93 33.1248 265.03 33.3974 265.122 33.6752C266.88 38.797 267.213 45.092 265.453 50.4344C264.516 52.6562 263.485 54.7534 261.832 56.5594C261.206 57.3286 260.516 58.0137 259.764 58.5927C257.397 60.434 254.478 61.247 251.469 60.4223C251.28 60.2927 250.901 60.2607 250.965 59.9325C251.07 59.4932 251.168 59.0488 251.253 58.5927C251.751 56.0326 251.983 53.3395 251.848 50.6465C251.845 50.532 251.841 50.4159 251.838 50.3014C251.671 46.3914 250.891 42.877 249.454 39.4955C248.531 37.5548 247.435 35.4391 246.055 33.5405C244.407 31.2767 242.364 29.3208 239.738 28.3446C238.129 27.9188 236.143 27.838 234.93 29.1761C234.062 29.9352 233.701 30.9569 233.826 32.0778C232.47 32.9363 230.945 33.3991 229.285 33.5405C228.879 33.5759 228.463 33.7257 228.04 33.7206C227.639 33.7391 227.248 33.7223 226.864 33.6752C224.867 33.4294 222.847 32.3522 221.312 31.1235C221.28 30.3038 221.233 29.5329 221.201 28.6661C220.321 28.2099 219.592 27.3431 219.531 26.3181L219.608 26.2406C220.116 26.3972 220.554 26.648 221.012 26.9156C220.806 25.6869 220.569 24.475 219.957 23.4028C219.388 23.1655 218.82 22.977 218.286 22.6925C217.671 22.2869 217.275 21.5429 217.184 20.868C217.735 21.4032 218.695 21.2147 219.121 21.7803C218.378 19.5905 218.367 17.0859 217.15 15.0847C216.535 13.6052 214.926 12.9268 213.822 11.8412C213.396 11.3194 213.224 10.5957 212.452 10.5149C211.821 10.3583 211.773 9.65141 211.664 9.19191C212.056 9.23904 212.387 9.50666 212.717 9.56894C211.804 7.14687 210.998 4.45044 208.525 2.90699L208.1 3.17629C207.138 3.31768 206.112 3.38164 205.151 3.41362C205.578 2.78412 206.333 2.51481 206.932 2.22867C206.238 1.71026 205.667 1.58571 204.799 1.44432C204.295 1.9459 203.384 2.20006 202.737 2.34144L202.656 2.27748C202.639 1.71026 202.511 1.01848 203.365 0.875412C202.545 0.481552 201.185 0.641452 200.349 0.875412C200.115 1.48977 199.438 2.04184 199.487 2.76897C199 3.27223 198.653 3.95055 198.145 4.31243C198.13 3.09887 198.648 1.98125 198.868 0.957887C198.159 1.22551 197.438 1.60422 196.742 1.93412C195.625 1.28779 194.445 0.643136 193.247 0.153336C193.139 0.106207 192.9 0.0607621 192.947 0.264425C193.973 1.00333 193.576 2.39194 193.685 3.44391L193.038 2.91035C192.723 2.10748 191.813 1.52511 191.657 0.643135C190.583 0.848481 189.898 1.13125 188.903 1.55709L188.767 1.6362C189.507 1.6362 190.137 2.21689 190.499 2.80263C189.38 2.86322 188.386 2.42392 187.283 2.31115C187.173 2.20342 187.077 2.07382 186.903 2.09065C186.352 2.296 185.877 2.68818 185.392 3.06689C184.304 4.13906 183.198 5.32064 182.679 6.73954C183.043 6.80014 183.5 6.78499 183.768 7.00548C183.17 7.36736 182.649 7.9834 182.066 8.32845C181.86 9.14815 181.892 10.0806 181.844 10.9761C181.385 11.6712 180.772 12.2822 180.474 13.0581C179.495 16.2191 179.244 19.7352 179.385 23.3254C179.068 23.6267 178.657 23.8169 178.361 24.0525L178.393 27.264H178.47C178.612 26.5891 179.417 26.212 179.906 25.7542H180.064C179.985 26.478 179.891 27.2034 179.875 27.944L178.962 28.6997C178.046 29.5043 178.819 30.7162 178.742 31.7261C178.806 31.9903 178.849 32.3859 179.04 32.4498C179.151 32.056 179.496 31.7732 179.719 31.4248C180.111 31.3322 180.458 31.0141 180.821 30.9703C180.615 31.758 180.351 32.5289 180.032 33.2847C179.881 33.384 179.704 33.5169 179.552 33.6785C179.39 33.8519 179.26 34.0455 179.227 34.2609C179.94 37.9925 181.055 41.6786 182.33 45.1913C181.466 46.6574 180.974 48.3826 180.253 49.8958C180.148 50.1062 180.056 50.3233 179.97 50.5421C179.245 52.3734 179.025 54.4218 178.123 56.1807C177.757 55.9316 177.363 55.738 176.957 55.5663C175.252 54.9991 173.281 55.361 172.037 56.6705C170.932 56.4652 169.796 56.6537 168.928 57.2377C168.307 57.7006 167.826 58.2644 167.55 58.9209C167.361 59.3787 167.275 59.8769 167.304 60.4206C166.596 60.907 166.217 61.6611 165.981 62.4202C165.651 64.1202 166.249 65.8909 167.227 67.2003H245.825V67.197Z" fill="white"/>
<path fill-rule="evenodd" clip-rule="evenodd" d="M235.386 31.7782C235.369 32.1872 235.071 32.6467 235.339 32.9918C235.718 32.566 236.35 32.5811 236.854 32.3943C238.256 32.268 239.597 32.7073 240.904 33.0255C240.576 32.5037 240.353 31.9247 239.991 31.45C239.263 31.2615 238.161 31.7648 238.037 30.6943C237.593 30.3156 236.898 30.5866 236.444 30.6135C236.001 30.9316 235.639 31.3221 235.386 31.7782Z" fill="white"/>
<path fill-rule="evenodd" clip-rule="evenodd" d="M187.193 18.1783C187.187 18.1716 187.176 18.1648 187.17 18.1632C187.17 18.1632 187.17 18.1716 187.173 18.1783H187.193Z" fill="white"/>
<path fill-rule="evenodd" clip-rule="evenodd" d="M192.926 32.1788L193.873 31.2666C193.953 31.2666 194.014 31.2834 194.061 31.3473L193.982 33.0945C194.439 33.5203 195.006 33.6617 195.605 33.6937C195.654 33.2207 196.016 32.8908 196.221 32.4801C196.395 32.1502 196.285 31.6604 196.631 31.4231L196.739 31.5342C196.852 32.0526 196.821 32.6366 197.089 33.0928C197.121 33.3436 197.167 33.66 197.197 33.8805C197.891 33.9142 198.52 33.7223 199.057 33.4715C199.025 32.874 199.232 32.3842 199.323 31.8321C199.468 31.6419 199.15 31.2969 199.546 31.3137C199.766 31.785 200.161 32.2731 200.381 32.7764C201.295 31.8472 201.674 30.6354 201.895 29.3764C201.628 29.0111 201.217 29.0111 200.9 28.7772C198.221 27.9103 194.781 27.7353 192.194 29.0751C192.027 30.1489 192.248 31.3305 192.926 32.1788Z" fill="white"/>
<path fill-rule="evenodd" clip-rule="evenodd" d="M167.867 61.7385C167.771 62.9537 167.867 64.0915 167.943 65.2883C168.197 65.6821 168.655 66.14 169.108 66.1719L169.191 65.3674C169.378 64.2464 168.78 63.0581 169.411 62.1138C169.853 62.2552 170.291 62.4757 170.673 62.6811C170.858 61.6409 170.594 60.429 169.6 59.7995L167.867 61.7385Z" fill="white"/>
<path fill-rule="evenodd" clip-rule="evenodd" d="M171.759 60.0402C171.144 61.8816 170.686 64.1572 171.43 66.0945C171.853 65.8134 172.296 65.5441 172.672 65.1503C172.596 63.6674 172.391 62.0852 173.272 60.8565C174.043 61.0938 174.567 61.8344 174.863 62.5599C175.386 61.895 175.559 60.9827 175.354 60.0991C175.386 59.409 174.594 59.5672 174.217 59.2811C174.345 58.6987 174.326 58.0238 174.943 57.6939L173.051 57.8824C172.564 58.5725 172.028 59.2525 171.759 60.0402Z" fill="white"/>
<path fill-rule="evenodd" clip-rule="evenodd" d="M175.655 65.4785C175.736 65.6232 175.655 65.8723 175.813 65.9043C176.051 64.583 177.122 63.7246 177.707 62.5599C177.988 62.166 177.972 61.6139 178.43 61.3143C179.047 61.3143 179.488 61.757 180.088 61.8041C180.277 61.9455 179.99 62.0701 179.977 62.2266C179.852 63.3005 179.441 64.1892 179.52 65.29H179.628C180.464 64.4113 181.031 63.4553 181.646 62.4471L181.754 61.5517C181.896 60.4795 180.73 59.7877 179.973 59.3467L180.651 58.4799L179.705 58.1483C178.6 58.2594 177.606 58.7155 176.834 59.584C175.876 61.3463 175.719 63.3375 175.655 65.4785Z" fill="white"/>
<path fill-rule="evenodd" clip-rule="evenodd" d="M179.897 56.1302C180.26 56.2413 180.59 55.9417 180.951 56.0999C182.403 56.6335 183.918 57.1855 185.005 58.3991L186.299 61.6897L186.946 59.6598L186.519 58.5556C186.157 57.7679 185.163 57.8319 184.484 57.7999C184.203 57.4851 184.501 57.1216 184.597 56.8237C184.925 55.706 183.554 55.7666 183.003 55.3139C183.037 54.6356 182.214 54.8712 181.756 54.8072L181.599 54.6187C181.507 54.4773 181.271 54.4773 181.143 54.5867C181.109 54.5413 181.048 54.5093 181.082 54.4285L180.732 54.5093C180.245 54.9352 179.913 55.4855 179.897 56.1302Z" fill="white"/>
<path fill-rule="evenodd" clip-rule="evenodd" d="M180.811 52.5097C180.858 52.7134 180.984 52.9187 181.141 53.0433C181.852 52.8548 182.528 52.3683 183.348 52.6646C184.406 53.5937 185.508 54.5699 186.789 55.0765L187.244 54.9957C187.528 55.0934 187.842 55.1068 188.032 55.4216C188.207 55.8474 187.768 56.0999 187.623 56.4449C188.334 56.965 188.049 57.8958 188.492 58.5236L189.628 57.0122C189.362 56.349 189.643 55.2162 188.602 55.154C188.256 54.9789 188.019 54.6322 188.034 54.2383C187.358 53.624 186.523 53.358 185.842 52.7285C185.291 52.2859 184.961 51.6075 184.25 51.451C183.763 51.1851 183.228 51.042 182.661 50.9174C181.599 50.7609 181.506 52.0182 180.811 52.5097Z" fill="white"/>
<path fill-rule="evenodd" clip-rule="evenodd" d="M182.324 49.406L182.514 49.7056C183.301 49.6568 184.014 49.3117 184.787 49.3269C185.306 49.6433 185.985 49.6281 186.519 49.8941C186.946 50.4765 187.404 51.1379 188.031 51.5335C189.311 51.7203 190.019 53.0921 190.46 54.0986V53.6105C190.649 52.9356 190.444 52.1462 190.191 51.5335C189.876 51.2171 189.419 51.01 189.089 50.7273C189.025 50.5236 189.072 50.4276 189.136 50.2391C188.646 49.719 187.921 49.4346 187.323 49.0273C186.487 47.8137 184.878 48.1453 183.601 47.8137L182.324 49.406Z" fill="white"/>
<path fill-rule="evenodd" clip-rule="evenodd" d="M182.298 37.8494C182.438 38.3392 182.61 38.9535 182.703 39.472C183.144 38.4957 184.015 38.0581 184.786 37.2536C184.343 36.9523 183.794 36.8109 183.306 36.7166V36.688C182.959 37.0331 182.423 37.3798 182.298 37.8494Z" fill="white"/>
<path fill-rule="evenodd" clip-rule="evenodd" d="M185.163 43.0319L185.872 42.3081C186.583 41.5843 187.166 40.7478 187.275 39.8187C186.772 39.5191 186.11 39.7228 185.621 39.8961C185.444 40.9228 185.18 41.9311 185.163 43.0319Z" fill="white"/>
<path fill-rule="evenodd" clip-rule="evenodd" d="M185.682 45.2536C186.772 45.3176 187.826 45.5347 188.711 44.9254L189.592 42.0876C189.31 42.0708 189.024 41.9462 188.758 42.0405C188.177 43.3331 187.006 44.6073 185.682 45.2536Z" fill="white"/>
<path fill-rule="evenodd" clip-rule="evenodd" d="M186.002 35.2035C186.711 36.2453 187.894 37.4101 189.108 37.7383C188.967 36.417 187.833 35.5014 187.248 34.3686L187.215 33.9899C186.758 33.5472 186.206 33.251 185.732 33.012C185.657 33.7711 185.862 34.4965 186.002 35.2035Z" fill="white"/>
<path fill-rule="evenodd" clip-rule="evenodd" d="M189.847 45.3799C190.682 45.5246 191.58 45.3799 192.352 45.1408C193.474 44.8766 194.088 43.6462 194.466 42.6868H193.063L191.548 44.1663C190.952 44.4827 190.381 44.9574 189.847 45.3799Z" fill="white"/>
<path fill-rule="evenodd" clip-rule="evenodd" d="M189.677 33.7711C189.914 34.9998 190.431 36.1174 191.144 37.1744L191.333 34.8264L189.677 33.7711Z" fill="white"/>
<path fill-rule="evenodd" clip-rule="evenodd" d="M194.846 39.8978C194.94 39.1101 194.612 38.1978 194.521 37.3949C194.046 37.0785 193.382 37.1105 192.895 36.7974C192.925 38.0413 193.901 39.0949 194.846 39.8978Z" fill="white"/>
<path fill-rule="evenodd" clip-rule="evenodd" d="M193.411 47.9029C194.404 47.5865 195.365 47.2398 196.278 46.7348C196.86 45.9033 197.745 45.1425 197.869 44.168C197.145 44.3716 196.513 44.1377 195.838 44.4693C195.429 45.2082 195.174 46.0447 194.388 46.5783C194.263 47.1118 193.678 47.4771 193.411 47.9029Z" fill="white"/>
<path fill-rule="evenodd" clip-rule="evenodd" d="M194.954 49.8402L196.137 51.382C196.768 51.5873 197.557 51.5234 198.107 51.1615L197.681 49.7594C196.847 50.0776 195.855 49.9799 194.954 49.8402Z" fill="white"/>
<path fill-rule="evenodd" clip-rule="evenodd" d="M196.927 38.6842L197.384 40.7646C198.485 39.8658 198.709 38.558 198.682 37.1728C198.051 37.8965 197.682 38.3392 196.927 38.6842Z" fill="white"/>
<path fill-rule="evenodd" clip-rule="evenodd" d="M200.032 42.3569C200.049 42.6548 200.128 42.9393 200.302 43.1766C201.53 43.6159 201.656 45.1122 202.793 45.6795C203.533 46.0094 204.382 45.5987 205.03 45.3008C204.542 44.7504 203.988 44.3683 203.518 43.7876C203.186 43.6462 202.854 43.4409 202.871 43.0319L200.032 42.3569Z" fill="white"/>
<path fill-rule="evenodd" clip-rule="evenodd" d="M201.01 49.7914C201.547 50.4058 202.271 50.7205 203.028 50.8922C202.903 50.7188 203.109 50.8922 203.139 50.7828L202.191 48.7075C201.719 48.7192 201.23 48.8152 200.789 48.7849C200.819 49.1282 200.9 49.4733 201.01 49.7914Z" fill="white"/>
<path fill-rule="evenodd" clip-rule="evenodd" d="M202.682 40.0863C202.239 39.063 202.054 37.8191 201.929 36.6863C201.456 37.2519 200.968 37.6154 200.526 38.1961C200.321 39.3626 201.987 39.6487 202.682 40.0863Z" fill="white"/>
<path fill-rule="evenodd" clip-rule="evenodd" d="M204.605 39.0175C205.173 39.7564 206.418 39.5039 207.115 39.2834C206.782 38.7162 205.714 38.3863 205.525 37.772C205.414 36.6863 205.197 35.631 204.846 34.6379C204.294 35.976 203.628 37.5683 204.605 39.0175Z" fill="white"/>
<path fill-rule="evenodd" clip-rule="evenodd" d="M205.598 42.3569C207.177 43.5082 208.72 44.8446 210.927 44.3565C211.086 44.2454 211.354 44.2606 211.386 44.0569C210.737 43.6462 210.046 43.3314 209.382 42.9561L208.627 41.852H208.28C207.428 42.1364 206.511 42.2441 205.598 42.3569Z" fill="white"/>
<path fill-rule="evenodd" clip-rule="evenodd" d="M205.632 55.1321H205.739C206.688 54.3763 207.807 54.1239 208.926 53.8074C209.227 53.9168 209.037 54.2484 209.305 54.3763C209.984 54.0919 210.804 54.1559 211.497 53.9185C212.334 53.9522 213.013 53.9673 213.689 54.3292C214.223 55.0361 215.234 54.9604 215.93 55.43L215.819 54.3292C214.353 52.6107 212.065 52.4845 209.955 52.5181L209.906 52.296C209.403 52.296 208.836 52.4071 208.363 52.6292C207.686 52.6578 207.039 52.9911 206.39 53.1948C206.088 53.794 205.852 54.5161 205.632 55.1321Z" fill="white"/>
<path fill-rule="evenodd" clip-rule="evenodd" d="M206.897 35.7724C207.512 36.5769 208.425 37.1896 209.466 36.9859C208.932 36.4658 208.315 35.9121 208.283 35.1732C208.442 33.7711 206.897 33.6617 206.141 32.9346C206.39 33.8822 206.361 34.9358 206.897 35.7724Z" fill="white"/>
<path fill-rule="evenodd" clip-rule="evenodd" d="M206.737 57.9211H206.921C207.758 57.3976 208.973 57.7932 209.794 57.2411C210.25 57.0038 210.281 57.6349 210.599 57.8083C211.371 58.2813 211.465 59.6968 212.554 59.3686C213.861 60.0452 213.531 61.6392 213.578 62.8039L214.793 62.0482C214.682 61.4338 215.027 60.6899 214.633 60.1563C214.335 59.4814 213.516 59.4174 213.121 58.8653C213.595 58.0608 212.523 57.6854 212.301 57.1014L212.365 57.0206L214.033 57.2411C214.604 57.5878 214.806 58.219 214.982 58.8014C216.291 59.0219 216.606 60.5014 217.064 61.4473C217.332 60.801 217.442 60.1075 217.711 59.4797C217.726 58.9579 217.032 58.9579 216.687 58.7239C216.589 57.9211 216.228 57.162 215.521 56.6755C214.068 56.3137 212.793 55.5091 211.201 55.5091L209.874 55.9198C209.148 56.0932 208.377 55.8727 207.826 56.3743C207.002 56.4365 206.939 57.337 206.737 57.9211Z" fill="white"/>
<path fill-rule="evenodd" clip-rule="evenodd" d="M207.569 51.4291L207.871 51.5705C208.515 51.2692 209.163 50.9242 209.842 50.6717C210.897 50.3721 211.718 51.5705 212.602 50.8148C212.933 50.5775 213.214 50.9242 213.468 51.1144C213.847 51.8078 214.73 51.7607 215.393 51.9492C215.062 51.0521 214.653 49.8217 213.5 49.677C213.044 49.4733 212.506 49.4935 212.065 49.2225C210.852 47.8844 210.063 50.3233 208.737 49.7258C208.265 50.2492 207.682 50.7357 207.569 51.4291Z" fill="white"/>
<path fill-rule="evenodd" clip-rule="evenodd" d="M207.871 59.101C208.375 59.5235 208.893 60.2506 209.68 60.1546C210.662 60.6125 210.251 61.9018 210.787 62.5801L211.353 62.0751L211.305 62.0448L211.386 61.9657L211.42 62.0128C211.577 61.5382 211.354 60.7033 211.086 60.153C210.724 59.9038 210.298 60.1698 209.953 59.9325C209.904 59.4292 209.589 59.1767 209.227 58.862C208.974 58.6735 208.642 58.9259 208.359 58.9091L207.871 59.101Z" fill="white"/>
<path fill-rule="evenodd" clip-rule="evenodd" d="M209.842 39.8978C210.363 40.7663 211.37 41.3016 212.175 41.8991C212.836 42.2004 213.703 42.2761 214.414 42.1196C213.737 41.5692 213.12 40.9397 212.554 40.2748C212.334 39.9601 212.285 39.5679 211.987 39.2834C211.242 39.4265 210.41 39.4114 209.842 39.8978Z" fill="white"/>
<path fill-rule="evenodd" clip-rule="evenodd" d="M210.712 34.2609C211.439 35.1563 212.558 34.7961 213.582 34.8264V34.7187L212.005 33.3924C211.562 33.5355 211.092 33.9276 210.712 34.2609Z" fill="white"/>
<path fill-rule="evenodd" clip-rule="evenodd" d="M181.683 19.4053L182.596 22.2415C182.579 20.634 183.321 19.2959 183.164 17.6582L183.843 16.6483L182.406 17.0893C182.029 17.8131 181.715 18.5402 181.683 19.4053Z" fill="white"/>
<path fill-rule="evenodd" clip-rule="evenodd" d="M182.298 14.4905L183.541 13.7651V11.922C183.021 12.2384 182.735 12.7737 182.329 13.1995L182.298 14.4905Z" fill="white"/>
<path fill-rule="evenodd" clip-rule="evenodd" d="M207.874 17.3586C207.573 17.7525 207.118 17.8467 206.74 17.9258C207.401 16.7123 207.718 15.0241 207.195 13.654C207.544 13.5294 207.923 13.4688 208.253 13.2769L208.22 13.2466L209.089 12.4875C210.24 11.6998 209.798 10.2052 210.225 9.08755C209.657 8.20389 209.485 7.1334 208.663 6.39113L208.712 6.36251C208.063 5.54282 206.897 5.63539 206.011 5.22638C204.845 4.83252 203.947 5.63539 203.111 6.174C202.749 6.23459 202.969 6.70756 202.575 6.69241C202.354 7.27647 202.085 7.90597 201.928 8.55062C200.366 8.32845 198.681 8.50518 197.434 9.38547C196.77 8.89904 195.967 8.8031 195.193 8.5826C194.627 8.4732 193.98 8.67854 193.572 8.36043C192.974 7.68548 192.844 6.45509 191.818 6.28341C191.458 6.15717 191.38 5.76499 191.38 5.41658C190.701 5.30717 190.1 4.9941 189.438 4.84935C188.432 4.39153 187.628 5.11866 186.87 5.60509C186.539 5.74816 186.16 5.79361 185.847 5.98549C185.279 6.86578 184.742 7.76459 184.379 8.73914C184.49 9.54201 184.836 10.2523 185.249 10.9289C185.611 11.954 186.745 12.7568 187.707 13.1675C187.25 14.7261 187.25 16.586 187.707 18.1615C187.707 18.1615 187.68 18.18 187.68 18.1766C187.68 18.18 187.63 18.2204 187.63 18.2204C187.478 18.2204 187.318 18.2507 187.193 18.1766H187.173C187.394 19.6814 188.103 20.9976 189.249 22.127C189.66 22.2717 189.566 22.7582 189.741 23.0746C189.849 23.2143 189.864 23.5139 189.817 23.6402C187.36 23.5611 185.166 24.1754 183.195 25.293C182.691 25.5455 182.913 26.2406 182.866 26.7271C184.253 25.8148 185.751 25.1365 187.405 24.8386C188.115 24.7914 188.919 24.6181 189.598 24.8066L189.677 26.1615C187.801 27.1378 185.751 27.705 184.142 29.3124C184.174 29.7988 184.081 30.3678 184.223 30.7784L185.658 29.6103C187.043 28.5584 188.494 27.6579 190.088 27.0755C190.514 27.5804 190.957 28.1157 191.525 28.4287C192.486 27.8144 193.527 27.3599 194.631 27.0755C195.215 26.7288 196.142 27.0435 196.521 26.3517L196.791 24.9177C196.742 24.8857 196.713 24.8251 196.632 24.8419C195.893 24.4161 195.404 23.6772 195.466 22.8087C195.215 22.9332 194.932 23.014 194.631 23.0292C194.378 22.9652 194.144 22.9046 194.032 22.6505C194.016 22.334 193.857 21.8627 194.172 21.6271C195.197 20.9959 196.523 20.9639 197.817 21.0616C198.777 21.1861 200.167 21.1373 200.496 22.2751C200.452 22.605 200.481 22.9669 200.15 23.1874C199.803 23.3759 199.411 23.1706 199.092 23.0309C198.843 23.8017 198.417 24.6702 197.547 24.9194L197.66 25.835C197.768 26.2457 197.8 26.9206 198.449 26.7793C199.947 27.1411 201.269 27.9137 202.578 28.7486C203.02 28.3059 203.367 27.8009 203.68 27.3465C206.014 28.1325 208.034 29.8813 209.957 31.5039L210.038 30.1809C208.208 28.5584 206.172 27.4088 204.06 26.5099C204.14 26.0841 204.235 25.6734 204.248 25.219C206.757 25.3587 209.135 26.1312 211.204 27.3465L211.17 26.212C208.995 25.0473 206.614 24.2747 204.011 24.2427C203.916 24.098 203.886 23.896 203.903 23.7529C205.165 23.5476 206.061 22.2415 206.365 21.1053C207.008 20.3664 207.942 19.5619 207.721 18.4611C207.75 18.3719 207.782 18.2742 207.814 18.18C207.898 17.9023 207.969 17.6144 207.874 17.3586Z" fill="white"/>
<path fill-rule="evenodd" clip-rule="evenodd" d="M210.068 21.4066L211.36 20.9959L211.5 20.2722C211.865 19.2168 211.094 18.4291 210.712 17.5926L210.068 21.4066Z" fill="white"/>
<path fill-rule="evenodd" clip-rule="evenodd" d="M213.328 26.4005C213.943 27.0755 214.543 28.1645 215.633 27.8312C215.552 27.3768 215.299 26.9997 215.143 26.5891C214.856 26.2558 214.764 25.3115 214.196 25.6448C213.77 25.3603 213.662 24.8857 213.391 24.5087C213.268 25.091 213.345 25.8165 213.328 26.4005Z" fill="white"/>
<path fill-rule="evenodd" clip-rule="evenodd" d="M213.551 31.0124C213.789 31.3457 213.853 31.7715 214.085 32.0694C214.511 32.3505 215.143 32.3067 215.662 32.2579C216.135 32.1485 216.435 32.6669 216.876 32.3657C216.327 32.0206 215.997 31.3894 215.473 30.935C214.857 30.4469 214.198 30.8727 213.551 31.0124Z" fill="white"/>
<path fill-rule="evenodd" clip-rule="evenodd" d="M214.386 38.3392C215.473 38.9855 216.858 39.6167 218.308 39.3962C218.465 39.3154 218.734 39.3323 218.764 39.1421C217.867 38.8256 216.923 37.9285 215.98 37.74C215.458 36.9371 214.781 37.9453 214.119 37.8814C214.134 38.0716 214.322 38.2146 214.386 38.3392Z" fill="white"/>
<path fill-rule="evenodd" clip-rule="evenodd" d="M217.664 52.2471L217.901 52.7538C218.139 54.3932 219.176 55.903 218.609 57.6989C219.082 58.0288 219.225 58.5792 219.523 59.0202H219.603C219.965 57.6518 219.714 56.2329 219.523 54.8611C219.665 53.6172 218.403 52.8918 217.664 52.2471Z" fill="white"/>
<path fill-rule="evenodd" clip-rule="evenodd" d="M217.935 36.1174C218.755 36.7486 220.064 36.8109 221.008 36.4961C220.41 36.1662 219.749 35.8044 219.257 35.3617L217.935 36.1174Z" fill="white"/>
<path fill-rule="evenodd" clip-rule="evenodd" d="M221.826 40.9548C221.745 41.618 222.188 42.1684 222.661 42.4983C222.835 42.1044 223.118 41.7745 223.148 41.3335C223.008 40.6552 222.629 40.0426 222.014 39.5864C221.903 40.0257 221.779 40.4482 221.826 40.9548Z" fill="white"/>
<path fill-rule="evenodd" clip-rule="evenodd" d="M221.875 48.1352C221.763 48.8741 222.582 48.9717 222.929 49.3807C223.214 49.7258 222.74 49.9631 222.74 50.293C223.338 51.0639 223.685 51.9476 223.685 52.9726C223.923 52.0132 224.285 51.0959 224.415 50.1045C224.351 49.4127 223.249 49.5541 223.421 48.7832C223.734 47.9955 223.357 47.2229 223.151 46.516C223.087 46.4032 222.946 46.1827 222.823 46.2467C222.533 46.893 221.826 47.3475 221.875 48.1352Z" fill="white"/>
<path fill-rule="evenodd" clip-rule="evenodd" d="M224.035 44.3868L224.853 45.9774C225.217 45.9336 225.45 45.5835 225.734 45.3344C225.957 44.6712 225.372 44.2454 225.2 43.7102C225.055 43.3315 225.2 42.8282 224.931 42.4966C224.727 42.372 224.488 42.1667 224.252 42.2273L224.035 44.3868Z" fill="white"/>
<path fill-rule="evenodd" clip-rule="evenodd" d="M225.09 40.1991C225.737 40.5913 226.476 41.1585 226.822 41.8503C227.376 43.4577 228.259 44.9069 228.904 46.4655C229.142 47.5528 229.331 48.5223 229.631 49.5945C229.742 49.8739 229.678 50.426 230.121 50.3805C230.246 49.1838 230.483 48.0342 230.498 46.7887C230.106 46.2702 229.582 46.0498 229.095 45.7316V45.6239C229.159 45.3546 229.379 45.0399 229.711 45.0903C229.851 44.9288 230.278 44.7739 230.091 44.4911C229.27 43.6731 229.317 42.261 228.006 42.0068C227.551 41.8183 227.438 41.347 227.395 40.906C226.778 40.3893 225.861 40.2109 225.09 40.1991Z" fill="white"/>
<path fill-rule="evenodd" clip-rule="evenodd" d="M225.844 48.7361C226.65 49.4733 226.368 50.5455 226.303 51.5385C226.178 52.1378 226.934 51.791 227.172 52.1058C227.659 52.8312 227.376 53.8866 227.2 54.6743C227.628 54.0263 228.117 53.459 228.447 52.7521C228.43 52.4828 228.775 52.3582 228.764 52.0283C228.903 51.5705 228.369 51.7759 228.149 51.7254C227.96 51.6783 227.755 51.552 227.815 51.3012C228.226 50.5118 227.849 49.5676 227.691 48.7815C227.502 48.1335 227.771 47.2701 227.47 46.7028C226.966 47.3963 225.467 47.5545 225.844 48.7361Z" fill="white"/>
<path fill-rule="evenodd" clip-rule="evenodd" d="M227.312 37.5498C228.717 38.9687 229.741 40.3927 231.254 41.7644C231.287 41.1534 231.207 40.5828 231.175 39.9836C230.952 39.5612 230.543 39.2447 230.196 38.93C229.079 38.8189 228.495 37.3142 227.312 37.5498Z" fill="white"/>
<path fill-rule="evenodd" clip-rule="evenodd" d="M230.987 45.0584C231.019 45.1998 231.083 45.3243 231.143 45.4674C231.758 46.4773 232.341 47.5141 232.769 48.6014C232.643 47.4384 233.433 45.9858 232.39 45.0904C232.248 44.7116 231.775 44.8379 231.475 44.8682L230.987 45.0584Z" fill="white"/>
<path fill-rule="evenodd" clip-rule="evenodd" d="M234.771 56.5661C235.214 56.7664 235.781 56.4046 236.207 56.1555C236.601 56.0595 236.933 56.28 237.233 56.4854C237.358 56.7361 237.233 56.9718 237.277 57.2091C238.225 57.4767 239.154 57.8235 239.991 58.3739L240.256 58.1079C240.32 57.4296 239.786 56.9449 239.28 56.5661C238.95 56.3726 238.458 56.4853 238.225 56.1841C238.382 55.935 238.382 55.5562 238.365 55.2718C237.843 55.2718 237.513 55.1136 237.086 54.8611C236.822 54.7837 236.583 54.5632 236.362 54.8611C235.575 55.398 235.528 56.1841 234.771 56.5661Z" fill="white"/>
<path fill-rule="evenodd" clip-rule="evenodd" d="M235.877 36.7419C236.269 36.6342 236.682 36.5197 237.012 36.2386C238.065 35.2775 239.596 35.9222 240.824 35.907C240.59 35.4812 240.256 35.0587 239.958 34.6935C239.517 34.5201 239.106 34.3148 238.602 34.3148C237.529 33.6869 236.806 34.7406 235.984 35.259C235.765 35.6882 235.656 36.316 235.877 36.7419Z" fill="white"/>
<path fill-rule="evenodd" clip-rule="evenodd" d="M235.907 39.9836C235.907 39.9399 235.907 39.8894 235.954 39.8759C236.096 40.0022 235.937 40.3001 236.175 40.3624C236.584 40.1604 236.963 39.8759 237.341 39.61C238.399 39.61 239.029 38.5866 240.067 38.5866C241.801 38.8997 243.523 39.2464 245.034 40.0964C244.926 39.073 244.042 38.1439 243.146 37.6844C242.638 37.5111 242.244 37.7821 241.882 38.0632C240.824 38.728 241.378 37.1038 240.637 37.0701C239.675 37.3731 238.68 37.7013 237.61 37.6087C236.979 37.8427 236.535 38.4234 235.828 38.3628C235.796 38.8829 235.717 39.514 235.907 39.9836Z" fill="white"/>
<path fill-rule="evenodd" clip-rule="evenodd" d="M236.633 43.4998C236.962 43.8448 237.513 43.7809 237.989 43.8448L239.359 43.3113C239.376 43.0588 238.95 42.9931 239.043 42.7137C239.422 42.2879 239.944 42.5858 240.414 42.4108C241.08 42.3182 241.757 41.6567 242.416 42.1448C242.401 42.2222 242.45 42.335 242.387 42.4108C242.178 42.9006 242.529 43.1985 242.906 43.387C243.68 43.5317 244.404 44.2404 245.177 43.9222C245.1 43.2776 244.926 42.6801 244.766 42.064C244.121 41.9529 243.664 41.4177 243.065 41.1955C242.795 41.448 242.45 41.6382 242.118 41.6062C240.903 41.3234 239.452 40.5677 238.224 41.3403C237.781 41.8738 236.992 41.7173 236.394 41.9513C236.427 42.4916 236.488 43.01 236.633 43.4998Z" fill="white"/>
<path fill-rule="evenodd" clip-rule="evenodd" d="M237.152 52.8615C237.056 53.1291 236.79 53.5718 237.277 53.6963C238.287 53.73 239.579 53.2099 240.369 53.996C240.635 54.203 240.509 54.6255 240.494 54.8948L241.816 55.9989C241.944 55.3357 242.178 54.7365 242.195 54.0262C242.087 53.523 241.833 53.0332 241.393 52.7033C240.524 52.7033 240.019 51.6883 239.089 51.8179C238.602 51.7052 238.178 52.1377 237.686 52.1377C237.465 52.3582 237.341 52.6275 237.152 52.8615Z" fill="white"/>
<path fill-rule="evenodd" clip-rule="evenodd" d="M237.531 45.4371C237.735 45.8596 237.974 46.5547 238.367 46.6018C239.297 46.1928 240.652 45.9387 241.695 46.3813C242.042 46.4436 242.042 46.8375 241.964 47.0916C242.498 47.4064 243.147 47.6555 243.713 48.0039L243.557 47.0597C243.523 46.0346 242.23 45.9387 242.151 44.9288C241.095 44.5837 239.912 44.4743 238.793 44.7419C238.428 45.0735 237.91 45.0264 237.467 45.1223C237.438 45.2469 237.514 45.3243 237.531 45.4371Z" fill="white"/>
<path fill-rule="evenodd" clip-rule="evenodd" d="M237.801 50.5404C238.416 50.3671 238.806 49.6887 239.47 49.6282C240.479 49.645 241.379 50.0506 242.007 50.9191C242.389 51.1699 242.309 51.8179 242.795 51.8179C242.654 51.0437 242.906 50.3351 242.876 49.5474C242.211 48.4466 240.577 49.2949 239.96 48.0039L238.795 48.0813C237.959 48.2867 238.182 49.2646 238.067 49.9261C237.973 50.1314 237.784 50.288 237.801 50.5404Z" fill="white"/>
<path fill-rule="evenodd" clip-rule="evenodd" d="M243.583 57.4296C244.074 58.4058 245.148 59.1481 245.256 60.2674C245.509 59.9661 245.682 59.6211 245.856 59.2912C245.839 58.9747 245.475 58.9747 245.332 58.7239C245.19 58.3149 245.413 57.9531 245.475 57.5878C245.271 57.0038 244.781 56.4534 244.23 56.1083L243.583 57.4296Z" fill="white"/>
<path fill-rule="evenodd" clip-rule="evenodd" d="M245.528 54.9419L246.662 56.4853C247.149 55.7128 247.149 54.58 246.96 53.6475C246.852 53.4742 246.645 53.1914 246.362 53.3176C245.934 53.7603 245.873 54.4353 245.528 54.9419Z" fill="white"/>
<path fill-rule="evenodd" clip-rule="evenodd" d="M240.905 11.8244C241.316 12.0297 241.71 12.2182 242.197 12.2485C242.53 12.0768 242.956 11.9506 243.366 12.06C243.948 12.4387 244.658 11.9809 245.333 12.0129C244.737 11.4473 244.056 11.1006 243.366 10.7707C242.481 10.9575 241.774 11.5854 240.905 11.8244Z" fill="white"/>
<path fill-rule="evenodd" clip-rule="evenodd" d="M247.073 13.3056C247.905 13.383 248.505 14.1219 249.072 14.7413C249.783 14.849 250.319 15.3523 250.743 15.8741L250.476 15.0375C250.287 14.201 249.766 13.5547 249.232 12.8965C248.476 12.9437 247.732 13.0059 247.073 13.3056Z" fill="white"/>
<path fill-rule="evenodd" clip-rule="evenodd" d="M188.224 6.39281L188.681 6.43994C189.913 7.05429 191.899 7.36904 192.009 9.14814C190.767 9.63794 189.567 10.3011 188.575 11.306C187.818 10.5334 186.287 10.9592 186.036 9.60596C186.273 8.33013 186.728 6.72608 188.224 6.39281Z" fill="#FF6600"/>
<path fill-rule="evenodd" clip-rule="evenodd" d="M189.411 14.3811C190.843 14.2565 192.231 14.4568 193.716 14.334C194.078 14.4905 194.455 14.8069 194.629 15.1688C194.582 16.8688 194.061 18.4931 193.982 20.2402C193.337 20.5112 192.705 21.0447 192.548 21.7533C191.963 21.925 191.443 22.2751 190.875 22.5394C190.622 22.0058 190.669 21.2013 191.114 20.7619C191.728 19.8934 193.321 20.0988 193.192 18.7287C193.603 18.0655 193.209 17.2155 193.225 16.5221C193.067 16.0037 192.91 16.6954 192.658 16.6786C192.154 16.7863 191.633 16.82 191.193 16.5709C190.86 16.2208 190.45 15.9397 190.356 15.4667C189.915 15.2462 189.396 14.8995 189.175 14.4417L189.411 14.3811Z" fill="#FF6600"/>
<path fill-rule="evenodd" clip-rule="evenodd" d="M191.144 24.6517C191.818 24.7443 192.531 24.4464 193.114 24.7763C192.987 24.9968 192.657 25.091 192.389 25.155L191.333 25.6448C190.939 25.5472 191.16 24.9177 191.144 24.6517Z" fill="#FF6600"/>
<path fill-rule="evenodd" clip-rule="evenodd" d="M193.904 11.4962C194.58 11.2757 195.307 10.8212 196.032 11.0417C195.511 11.5618 195.102 12.2384 194.709 12.8662L192.55 12.8208C192.782 12.2553 193.38 11.7823 193.904 11.4962Z" fill="#FF6600"/>
<path fill-rule="evenodd" clip-rule="evenodd" d="M200.228 10.9777C201.124 10.8212 201.077 11.986 201.897 12.0348C202.04 12.2233 202.246 12.395 202.165 12.6777C201.691 12.8662 200.999 12.7737 200.46 12.8982C199.751 12.5044 200.211 11.2757 199.089 11.3548C199.028 11.2622 198.9 11.072 199.059 11.008C199.407 10.8852 199.86 10.9306 200.228 10.9777Z" fill="#FF6600"/>
<path fill-rule="evenodd" clip-rule="evenodd" d="M199.66 15.2008C200.053 14.647 200.654 14.6033 201.22 14.4905L205.305 14.5696C205.478 14.7261 205.148 14.8675 205.148 15.0577C204.895 15.2934 204.531 15.3573 204.311 15.5795C203.777 15.5963 203.82 16.2225 203.443 16.4918C202.858 17.0741 202.009 16.8082 201.33 16.7123C201.092 16.5389 200.826 16.3016 200.715 16.034L200.526 16.2225C200.764 17.1061 200.7 18.084 200.872 18.9795L201.849 19.6275C201.866 21.0767 203.569 20.6828 204.311 21.4874C204.137 22.0058 203.79 22.4468 203.414 22.8895C202.814 22.3054 202.135 21.925 201.411 21.6759C201.348 20.8242 200.418 20.3226 199.896 19.8951C199.755 18.3517 199.723 16.7762 199.473 15.2799L199.66 15.2008Z" fill="#FF6600"/>
<path fill-rule="evenodd" clip-rule="evenodd" d="M201.141 24.9177H203.035L202.797 25.9107L200.904 25.1062C200.86 24.9497 201.03 24.9025 201.141 24.9177Z" fill="#FF6600"/>
<path fill-rule="evenodd" clip-rule="evenodd" d="M204.547 7.07281L205.95 6.63014C206.756 7.00716 207.512 7.48182 208.252 8.01538C208.837 9.08923 208.739 10.5351 208.473 11.7318C208.046 12.2064 207.116 11.7318 206.771 12.4875H206.707C206.184 11.008 204.705 9.68676 203.332 9.00676C203.553 8.2527 203.79 7.5138 204.547 7.07281Z" fill="#FF6600"/>
<path fill-rule="evenodd" clip-rule="evenodd" d="M237.435 67.0859H245.848C247.093 66.8974 248.418 66.9277 249.41 66.012C253.622 66.66 257.894 65.6199 261.205 63.3055C262.952 61.895 264.522 60.2657 265.791 58.4866C266.91 56.9179 267.795 55.4519 268.366 53.6963C268.79 52.6107 269.127 51.4847 269.382 50.325C270.583 44.8665 269.953 38.7617 268.177 33.5641C267.847 32.5996 267.478 31.6705 267.072 30.7784C264.851 26.1935 261.831 21.2484 257.174 18.3466C254.551 16.7123 252.14 14.1842 250.659 11.5719C249.853 10.8448 249.08 9.88537 248.04 9.712C248.325 10.185 248.638 10.6411 248.719 11.1915L248.655 11.2706C247.553 11.3026 246.684 10.7202 245.927 10.0082L246.765 9.25418C246.448 9.09765 246.086 9.03201 245.738 8.95626C242.552 8.59438 239.935 10.0571 237.115 10.7673L237.068 10.9239C238.8 11.6948 239.162 13.6001 240.173 14.8945C240.426 14.5932 240.852 14.8137 241.198 14.7817C241.701 14.8137 242.175 15.1755 242.662 15.0493C242.679 14.6251 242.444 14.2952 242.364 13.9182C242.662 13.7735 243.027 13.9014 243.358 13.9182C244.271 14.4518 245.738 13.8206 246.306 15.0493C245.265 15.1149 244.288 15.3321 243.31 15.5694C243.373 15.9633 243.767 16.2797 243.737 16.6736C242.899 16.3235 242.018 16.108 241.086 15.9952L241.043 16.1349C242.225 17.5219 243.846 18.3416 245.503 18.8314C247.883 19.3818 249.979 18.249 252.279 18.6429C257.929 21.2265 262.751 27.1361 264.851 32.7444C264.954 33.0137 265.051 33.2863 265.146 33.5607C266.903 38.6826 267.235 44.9826 265.476 50.3216C264.539 52.5467 263.508 54.6406 261.855 56.45C261.23 57.2158 260.537 57.9009 259.786 58.4833C257.419 60.3246 254.5 61.1342 251.494 60.3078C251.307 60.1849 250.925 60.1513 250.987 59.8214C251.093 59.3837 251.191 58.936 251.277 58.4833C251.777 55.9198 252.005 53.2267 251.873 50.5371C251.867 50.4209 251.865 50.3048 251.86 50.1903C251.695 46.282 250.915 42.7659 249.476 39.3861C248.556 37.4454 247.459 35.3297 246.079 33.4294C244.433 31.1639 242.387 29.2064 239.762 28.2301C238.153 27.8043 236.165 27.7269 234.953 29.0667C234.084 29.8224 233.723 30.8458 233.848 31.9634C232.491 32.8252 230.966 33.2897 229.307 33.4294C228.901 33.4648 228.483 33.6112 228.063 33.6095C227.661 33.628 227.268 33.6095 226.889 33.5607C224.887 33.315 222.869 32.2428 221.334 31.009C221.302 30.1944 221.253 29.4184 221.222 28.555C220.341 28.0972 219.617 27.2287 219.553 26.207L219.633 26.1279C220.137 26.2844 220.579 26.5369 221.034 26.8062C220.828 25.5775 220.594 24.3639 219.979 23.2934C219.411 23.0561 218.84 22.8693 218.306 22.5831C217.691 22.1741 217.296 21.4335 217.205 20.7552C217.755 21.2938 218.717 21.1036 219.143 21.6709C218.403 19.4811 218.387 16.9765 217.172 14.9752C216.557 13.4941 214.948 12.8174 213.844 11.7284C213.418 11.21 213.246 10.4863 212.472 10.4055C211.842 10.2489 211.793 9.53864 211.684 9.08418C212.078 9.12963 212.408 9.39894 212.742 9.46121C211.825 7.03409 211.022 4.34272 208.546 2.79926L208.12 3.0652C207.16 3.20995 206.134 3.27055 205.172 3.30253C205.598 2.67134 206.354 2.4054 206.954 2.11927C206.258 1.60085 205.689 1.47462 204.819 1.33155C204.316 1.83818 203.406 2.08729 202.759 2.22867L202.681 2.16808C202.664 1.60254 202.533 0.905708 203.386 0.766006C202.567 0.372146 201.21 0.52868 200.373 0.766006C200.135 1.38036 199.463 1.93075 199.507 2.65451C199.021 3.16114 198.674 3.83609 198.167 4.19965C198.154 2.98609 198.668 1.86679 198.89 0.845114C198.181 1.11105 197.46 1.48808 196.767 1.82135C195.647 1.17501 194.467 0.52868 193.271 0.0422468C193.16 -0.00656487 192.922 -0.0536931 192.969 0.149969C193.994 0.89056 193.598 2.2758 193.707 3.33283L193.06 2.79926C192.745 1.99471 191.833 1.41234 191.678 0.52868C190.605 0.734026 189.919 1.01848 188.925 1.44432L188.787 1.52175C189.527 1.52175 190.157 2.10412 190.521 2.68649C189.402 2.75045 188.408 2.30778 187.306 2.20006C187.195 2.08897 187.102 1.96273 186.925 1.97956C186.373 2.18491 185.902 2.57877 185.412 2.95748C184.325 4.02629 183.22 5.21123 182.701 6.62677C183.065 6.69073 183.522 6.67558 183.79 6.89608C183.193 7.25795 182.671 7.87231 182.086 8.21904C181.882 9.03874 181.912 9.96784 181.865 10.8667C181.409 11.5584 180.794 12.1728 180.494 12.9437C179.516 16.1097 179.264 19.6224 179.407 23.2143C179.09 23.5122 178.679 23.7058 178.382 23.9398L178.415 27.1529H178.492C178.637 26.4746 179.441 26.0976 179.928 25.6414H180.086C180.008 26.3652 179.912 27.0889 179.897 27.8312L178.982 28.587C178.071 29.3898 178.842 30.6 178.762 31.6082C178.827 31.8775 178.871 32.2714 179.065 32.3354C179.173 31.9415 179.52 31.657 179.739 31.312C180.133 31.2144 180.479 30.9013 180.841 30.8542C180.64 31.6402 180.371 32.4128 180.052 33.1685C179.902 33.2678 179.724 33.4042 179.572 33.5624C179.412 33.7357 179.284 33.9344 179.254 34.1481C179.961 37.8814 181.077 41.5658 182.356 45.0786C181.486 46.5412 180.996 48.2682 180.273 49.7813C180.17 49.9934 180.078 50.2072 179.99 50.4277C179.265 52.2606 179.045 54.3057 178.143 56.0679C177.781 55.8138 177.388 55.6252 176.979 55.4519C175.272 54.8863 173.302 55.2482 172.059 56.5544C170.954 56.349 169.818 56.5375 168.948 57.1199C168.328 57.5878 167.846 58.15 167.572 58.8081C167.386 59.2642 167.297 59.7608 167.328 60.3044C166.616 60.7926 166.237 61.5483 166.003 62.304C165.671 64.0074 166.269 65.7764 167.247 67.0842L237.435 67.0859Z" fill="white"/>
<path fill-rule="evenodd" clip-rule="evenodd" d="M268.177 33.5658C267.847 32.6013 267.478 31.6722 267.072 30.7801C264.851 26.1952 261.831 21.2501 257.174 18.3483C254.551 16.714 252.14 14.1858 250.659 11.5736C249.853 10.8465 249.08 9.88705 248.04 9.71369C248.325 10.1867 248.638 10.6428 248.719 11.1932L248.655 11.2723C247.553 11.3043 246.684 10.7219 245.927 10.0099L246.765 9.25587C246.448 9.09933 246.086 9.03369 245.738 8.95795C242.552 8.59607 239.935 10.0587 237.115 10.769L237.068 10.9256C238.8 11.6965 239.162 13.6018 240.173 14.8961C240.426 14.5949 240.852 14.8153 241.198 14.7834C241.701 14.8153 242.175 15.1772 242.662 15.051C242.679 14.6268 242.444 14.2969 242.364 13.9199C242.662 13.7752 243.027 13.9031 243.358 13.9199C244.271 14.4535 245.738 13.8223 246.306 15.051C245.265 15.1166 244.288 15.3338 243.31 15.5711C243.373 15.9649 243.767 16.2814 243.737 16.6752C242.899 16.3251 242.018 16.1097 241.086 15.9969L241.043 16.1366C242.225 17.5236 243.846 18.3433 245.503 18.833C247.883 19.3834 249.979 18.2507 252.279 18.6445C257.929 21.2282 262.751 27.1378 264.851 32.7461C264.954 33.0154 265.051 33.288 265.146 33.5624C266.903 38.6842 267.235 44.9843 265.476 50.3233C264.539 52.5484 263.508 54.6423 261.855 56.4517C261.23 57.2175 260.537 57.9026 259.786 58.4849C257.419 60.3263 254.5 61.1359 251.494 60.3095C251.307 60.1866 250.925 60.153 250.987 59.8231C251.093 59.3854 251.191 58.9377 251.277 58.4849C251.777 55.9215 252.005 53.2284 251.873 50.5387C251.867 50.4226 251.865 50.3065 251.86 50.192C251.695 46.2837 250.915 42.7676 249.476 39.3878C248.556 37.4471 247.459 35.3314 246.079 33.4311C244.433 31.1656 242.387 29.208 239.762 28.2318C238.153 27.806 236.165 27.7285 234.953 29.0683C234.084 29.8241 233.723 30.8474 233.848 31.9651C232.491 32.8268 230.966 33.2914 229.307 33.4311C228.901 33.4664 228.483 33.6129 228.063 33.6112C227.661 33.6297 227.268 33.6112 226.889 33.5624C224.887 33.3166 222.869 32.2445 221.334 31.0107C221.302 30.1961 221.253 29.4201 221.222 28.5567C220.341 28.0988 219.617 27.2303 219.553 26.2087L219.633 26.1296C220.137 26.2861 220.579 26.5386 221.034 26.8079C220.828 25.5792 220.594 24.3656 219.979 23.2951C219.411 23.0578 218.84 22.871 218.306 22.5848C217.691 22.1758 217.296 21.4352 217.205 20.7569C217.755 21.2955 218.717 21.1053 219.143 21.6725C218.403 19.4827 218.387 16.9782 217.172 14.9769C216.557 13.4957 214.948 12.8191 213.844 11.7301C213.418 11.2117 213.246 10.4879 212.472 10.4071C211.842 10.2506 211.793 9.54032 211.684 9.08587C212.078 9.13131 212.408 9.40062 212.742 9.4629C211.825 7.03578 211.022 4.34441 208.546 2.80095L208.12 3.06689C207.16 3.21164 206.134 3.27223 205.172 3.30421C205.598 2.67303 206.354 2.40709 206.954 2.12095C206.258 1.60254 205.689 1.4763 204.819 1.33323C204.316 1.83986 203.406 2.08897 202.759 2.23036L202.681 2.16976C202.664 1.60422 202.533 0.907392 203.386 0.76769C202.567 0.37383 201.21 0.530364 200.373 0.76769C200.135 1.38204 199.463 1.93244 199.507 2.6562C199.021 3.16283 198.674 3.83777 198.167 4.20134C198.154 2.98778 198.668 1.86848 198.89 0.846799C198.181 1.11274 197.46 1.48977 196.767 1.82303C195.647 1.1767 194.467 0.530364 193.271 0.0439311C193.16 -0.00488052 192.922 -0.0520092 192.969 0.151653C193.994 0.892244 193.598 2.27748 193.707 3.33451L193.06 2.80095C192.745 1.9964 191.833 1.41402 191.678 0.530365C190.605 0.73571 189.919 1.02016 188.925 1.446L188.787 1.52343C189.527 1.52343 190.157 2.1058 190.521 2.68818C189.402 2.75214 188.408 2.30946 187.306 2.20174C187.195 2.09065 187.102 1.96442 186.925 1.98125C186.373 2.18659 185.902 2.58045 185.412 2.95916C184.325 4.02797 183.22 5.21292 182.701 6.62845C183.065 6.69241 183.522 6.67727 183.79 6.89776C183.193 7.25964 182.671 7.87399 182.086 8.22072C181.882 9.04042 181.912 9.96953 181.865 10.8683C181.409 11.5601 180.794 12.1745 180.494 12.9454C179.516 16.1114 179.264 19.6241 179.407 23.216C179.09 23.5139 178.679 23.7075 178.382 23.9414L178.415 27.1546H178.492C178.637 26.4763 179.441 26.0993 179.928 25.6431H180.086C180.008 26.3669 179.912 27.0906 179.897 27.8329L178.982 28.5886C178.071 29.3915 178.842 30.6017 178.762 31.6099C178.827 31.8792 178.871 32.2731 179.065 32.337C179.173 31.9432 179.52 31.6587 179.739 31.3137C180.133 31.2161 180.479 30.903 180.841 30.8559C180.64 31.6419 180.371 32.4145 180.052 33.1702C179.902 33.2695 179.724 33.4059 179.572 33.5641C179.412 33.7374 179.284 33.936 179.254 34.1498C179.961 37.8831 181.077 41.5675 182.356 45.0803C181.486 46.5429 180.996 48.2698 180.273 49.783C180.17 49.9951 180.078 50.2088 179.99 50.4293C179.265 52.2623 179.045 54.3073 178.143 56.0696C177.781 55.8155 177.388 55.6269 176.979 55.4536C175.272 54.888 173.302 55.2499 172.059 56.556C170.954 56.3507 169.818 56.5392 168.948 57.1216C168.328 57.5895 167.846 58.1517 167.572 58.8098C167.386 59.2659 167.297 59.7625 167.328 60.3061C166.616 60.7942 166.237 61.55 166.003 62.3057C165.671 64.0091 166.269 65.7781 167.247 67.0859H195.111C194.701 66.5995 194.322 65.9211 194.036 65.3388C193.439 64.4383 193.849 63.1641 193.785 62.1239C194.352 60.9794 194.929 59.8281 195.577 58.7088C195.709 58.4833 195.84 58.2628 195.975 58.044L197.254 57.5558C197.931 57.5558 198.501 57.0677 199.146 57.2394C200.014 58.1079 200.014 56.3743 200.851 56.2952C202.806 56.0427 204.745 56.2312 205.847 57.8857C205.847 58.1062 206.198 58.1062 206.117 58.3116C205.864 58.3873 205.626 58.2308 205.36 58.2308C204.162 57.9329 202.757 57.1738 201.576 57.8521C201.53 58.1348 201.47 58.4227 201.412 58.7054C201.353 59.0067 201.3 59.3013 201.274 59.584C202.046 59.8045 202.693 60.3566 203.276 60.9541C203.67 60.1833 204.506 59.8365 205.247 59.584C205.894 59.7254 206.604 59.7423 207.141 60.1513C208.135 61.0669 207.645 62.6255 207.552 63.7903C208.449 64.2935 209.443 64.5797 210.356 65.0661C209.93 65.4482 209.365 65.603 208.845 65.7932L207.332 65.4919C207.158 65.3674 206.857 65.3674 206.794 65.1469C206.29 65.6805 205.675 66.3907 205.36 67.0825H226.961C226.677 66.4362 226.346 65.9329 225.952 65.3354C225.509 64.3895 225.686 63.0968 225.637 62.0886L227.656 59.0168C228.758 59.0017 230.006 58.591 231.202 58.7963C231.263 58.7694 231.32 58.7391 231.376 58.7038C231.873 58.3604 232.025 57.5626 232.764 57.6619C234.087 57.3017 235.098 57.9009 236.092 58.4984C236.058 58.5775 236.026 58.6465 235.991 58.7038C235.575 59.3686 234.796 58.6263 234.229 58.8266C233.991 59.0791 234.34 59.377 234.385 59.6632C234.591 59.9442 234.18 59.9123 234.04 59.9611C233.71 60.0082 233.347 59.9291 233.093 59.6632C233.031 59.5824 233.078 59.4898 232.953 59.4746C232.667 59.9442 232.257 60.3718 232.148 60.907C232.508 61.2554 232.997 61.6005 233.172 62.0431C233.534 62.5632 232.887 62.9554 232.763 63.4132C232.715 63.5058 232.571 63.5058 232.525 63.4132C232.191 63.2247 231.91 62.7501 231.546 62.8746C231.229 64.2784 231.656 65.6804 231.467 67.0825C232.082 67.2273 232.806 67.0505 233.469 67.0825L233.738 64.1202C234.02 62.1997 235.159 60.5923 236.498 59.1245C237.946 58.1365 238.879 60.089 239.949 60.7656C240.124 60.7976 240.062 60.9861 240.138 61.0955C240.123 61.412 239.792 61.5365 239.572 61.6325C238.908 61.8664 238.419 61.1427 238.01 60.7168C237.617 61.1427 237.442 61.7082 236.985 62.0415L237.142 62.0869C237.666 62.6087 238.166 63.1591 238.281 63.8525C238.217 64.4804 237.902 65.0947 237.332 65.4128C236.909 64.6857 236.561 63.8828 236.279 63.1422C236.294 63.1759 236.261 63.1894 236.23 63.223C235.361 63.457 235.13 64.4332 234.985 65.2226C235.032 65.9952 234.449 66.3099 234.604 67.0808H245.85C247.095 66.8923 248.419 66.9226 249.412 66.007C253.624 66.655 257.895 65.6148 261.206 63.3005C262.954 61.89 264.524 60.2607 265.793 58.4816C266.912 56.9129 267.796 55.4468 268.367 53.6913C268.792 52.6057 269.129 51.4796 269.383 50.3199C270.583 44.8665 269.953 38.7617 268.177 33.5658Z" fill="#FF6600"/>
<path fill-rule="evenodd" clip-rule="evenodd" d="M195.815 62.8022C196.43 62.4084 197.424 62.3124 197.564 61.4002C197.314 61.21 197.092 60.9727 196.807 60.9104L196.161 61.0989C196.208 60.7202 196.413 60.296 196.543 59.887L198.622 59.2104C198.335 60.1546 198.227 61.3362 198.131 62.4235C198.32 64.031 198.558 65.7478 199.378 67.0859H197.137C196.887 65.6064 195.338 64.5325 195.815 62.8022Z" fill="#FF6600"/>
<path fill-rule="evenodd" clip-rule="evenodd" d="M200.657 60.9104H200.782L202.293 62.2821L202.514 62.235C202.391 63.8424 202.31 65.4179 202.293 67.0859H200.656C200.322 65.5273 199.771 63.8879 199.835 62.2047C200.118 61.7789 200.307 61.242 200.657 60.9104Z" fill="#FF6600"/>
<path fill-rule="evenodd" clip-rule="evenodd" d="M204.029 62.4252C204.331 62.033 204.455 61.3682 205.053 61.2925C205.479 61.3042 205.874 61.3682 206.192 61.6695C206.743 62.3613 206.204 63.2466 206.003 63.9384C205.781 64.9937 205.4 66.0945 205.055 67.0876H203.463L204.029 62.4252Z" fill="#FF6600"/>
<path fill-rule="evenodd" clip-rule="evenodd" d="M227.95 61.9354C228.297 62.3781 228.407 62.9756 228.927 63.3695C229.385 62.74 229.495 61.7621 229.274 60.9592L228.818 60.5014C229.402 60.3617 230.015 60.3129 230.6 60.2034C230.347 61.0383 229.871 61.794 229.953 62.7703C229.968 64.1892 230.204 65.6081 230.33 67.0859H228.597C227.967 65.699 227.335 64.3777 227.383 62.7703C227.571 62.4858 227.698 62.1542 227.95 61.9354Z" fill="#FF6600"/>
<path fill-rule="evenodd" clip-rule="evenodd" d="M235.41 31.6705C235.393 32.0795 235.095 32.534 235.361 32.8841C235.744 32.4582 236.372 32.4734 236.878 32.2849C238.281 32.1569 239.621 32.5996 240.928 32.9161C240.598 32.3943 240.377 31.8119 240.013 31.3406C239.287 31.1504 238.183 31.6554 238.059 30.5815C237.617 30.2045 236.925 30.4738 236.466 30.5041C236.023 30.8188 235.663 31.2127 235.41 31.6705Z" fill="white"/>
<path fill-rule="evenodd" clip-rule="evenodd" d="M187.215 18.0672C187.208 18.0638 187.202 18.0571 187.192 18.0504C187.192 18.0571 187.195 18.0605 187.195 18.0672H187.215Z" fill="white"/>
<path fill-rule="evenodd" clip-rule="evenodd" d="M192.949 32.0711L193.896 31.1588C193.977 31.1588 194.039 31.174 194.085 31.2346L194.007 32.9834C194.464 33.4092 195.028 33.5489 195.628 33.5826C195.677 33.1113 196.039 32.778 196.245 32.369C196.418 32.0391 196.309 31.551 196.654 31.317L196.765 31.4248C196.873 31.9466 196.843 32.5289 197.113 32.9834C197.145 33.2359 197.188 33.5489 197.219 33.7711C197.915 33.8031 198.546 33.6146 199.081 33.3604C199.049 32.7629 199.256 32.2748 199.347 31.7261C199.492 31.5359 199.173 31.1874 199.568 31.2043C199.79 31.6772 200.183 32.1637 200.405 32.6703C201.318 31.7412 201.701 30.5293 201.916 29.267C201.65 28.9068 201.241 28.9068 200.922 28.6694C198.243 27.8043 194.808 27.6309 192.221 28.969C192.048 30.0362 192.268 31.2177 192.949 32.0711Z" fill="white"/>
<path fill-rule="evenodd" clip-rule="evenodd" d="M167.887 61.6308C167.791 62.8443 167.887 63.9821 167.964 65.1806C168.217 65.5744 168.677 66.0322 169.133 66.0608L169.211 65.2563C169.4 64.1387 168.802 62.952 169.433 62.0061C169.875 62.1458 170.316 62.368 170.695 62.5717C170.884 61.5331 170.614 60.3179 169.62 59.6867L167.887 61.6308Z" fill="white"/>
<path fill-rule="evenodd" clip-rule="evenodd" d="M171.782 59.9274C171.168 61.7722 170.711 64.0427 171.452 65.9851C171.878 65.699 172.318 65.4313 172.695 65.0392C172.618 63.5563 172.412 61.9775 173.295 60.7454C174.067 60.9828 174.589 61.7233 174.885 62.4454C175.409 61.7856 175.581 60.87 175.377 59.9914C175.409 59.2962 174.621 59.4561 174.242 59.1717C174.366 58.5876 174.35 57.9144 174.966 57.5811L173.076 57.7696C172.588 58.4647 172.052 59.138 171.782 59.9274Z" fill="white"/>
<path fill-rule="evenodd" clip-rule="evenodd" d="M175.678 65.3707C175.757 65.5104 175.678 65.7646 175.838 65.7966C176.073 64.4719 177.144 63.6152 177.73 62.4471C178.012 62.0583 177.998 61.5028 178.455 61.2049C179.068 61.2049 179.511 61.6459 180.111 61.693C180.3 61.8361 180.014 61.9623 179.998 62.1189C179.874 63.1927 179.464 64.0781 179.542 65.1822H179.651C180.487 64.2986 181.055 63.3476 181.67 62.3394L181.778 61.4439C181.923 60.3718 180.757 59.68 179.995 59.2373L180.674 58.3688L179.727 58.0389C178.624 58.1483 177.629 58.6061 176.858 59.4746C175.897 61.2352 175.741 63.2281 175.678 65.3707Z" fill="white"/>
<path fill-rule="evenodd" clip-rule="evenodd" d="M179.921 56.0225C180.281 56.1302 180.613 55.834 180.974 55.9888C182.426 56.5257 183.94 57.0761 185.028 58.288L186.322 61.582L186.969 59.547L186.543 58.4479C186.179 57.6602 185.186 57.7241 184.507 57.6922C184.224 57.3757 184.522 57.0139 184.619 56.7159C184.949 55.5966 183.577 55.6589 183.026 55.2028C183.058 54.5278 182.238 54.7601 181.779 54.6995L181.623 54.511C181.528 54.3662 181.292 54.3662 181.164 54.4773C181.136 54.4302 181.072 54.3982 181.104 54.3208L180.758 54.3982C180.266 54.8241 179.936 55.3745 179.921 56.0225Z" fill="white"/>
<path fill-rule="evenodd" clip-rule="evenodd" d="M180.833 52.3986C180.881 52.6006 181.006 52.806 181.163 52.9339C181.874 52.7454 182.555 52.2539 183.372 52.5552C184.43 53.4843 185.532 54.4605 186.811 54.9638L187.269 54.8863C187.55 54.9789 187.866 54.9941 188.054 55.3122C188.229 55.738 187.788 55.9871 187.648 56.3339C188.356 56.8556 188.074 57.7831 188.514 58.4126L189.648 56.9028C189.384 56.2396 189.665 55.1068 188.627 55.0429C188.277 54.8695 188.042 54.5245 188.056 54.1306C187.38 53.5163 186.545 53.2486 185.867 52.6174C185.311 52.1781 184.983 51.5015 184.275 51.3433C183.785 51.074 183.249 50.9326 182.683 50.8097C181.623 50.6481 181.528 51.9088 180.833 52.3986Z" fill="white"/>
<path fill-rule="evenodd" clip-rule="evenodd" d="M182.349 49.2949L182.538 49.5978C183.326 49.549 184.034 49.204 184.807 49.2175C185.326 49.5322 186.005 49.5154 186.541 49.7847C186.967 50.3687 187.426 51.0269 188.052 51.4207C189.331 51.6092 190.039 52.9844 190.48 53.9892V53.5028C190.669 52.8245 190.464 52.0351 190.216 51.4207C189.899 51.106 189.439 50.9023 189.111 50.6212C189.047 50.4159 189.094 50.3182 189.158 50.1314C188.667 49.6113 187.943 49.3269 187.343 48.9162C186.507 47.7026 184.902 48.0376 183.623 47.7026L182.349 49.2949Z" fill="white"/>
<path fill-rule="evenodd" clip-rule="evenodd" d="M182.322 37.74C182.462 38.2298 182.632 38.8425 182.728 39.3642C183.168 38.388 184.039 37.9453 184.81 37.1442C184.367 36.8445 183.816 36.7015 183.329 36.6089V36.5769C182.981 36.9203 182.445 37.2687 182.322 37.74Z" fill="white"/>
<path fill-rule="evenodd" clip-rule="evenodd" d="M185.187 42.9241L185.894 42.2004C186.605 41.4732 187.191 40.6367 187.297 39.7093C186.794 39.4114 186.132 39.6167 185.645 39.7901C185.471 40.8101 185.202 41.8183 185.187 42.9241Z" fill="white"/>
<path fill-rule="evenodd" clip-rule="evenodd" d="M185.705 45.1459C186.793 45.2065 187.851 45.427 188.734 44.8126L189.618 41.9782C189.332 41.9614 189.047 41.8334 188.781 41.9311C188.198 43.2204 187.033 44.4979 185.705 45.1459Z" fill="white"/>
<path fill-rule="evenodd" clip-rule="evenodd" d="M186.026 35.0957C186.735 36.1343 187.919 37.2973 189.13 37.6306C188.99 36.3059 187.855 35.392 187.27 34.2609L187.238 33.8822C186.782 33.4412 186.229 33.1399 185.756 32.9059C185.68 33.6617 185.886 34.3838 186.026 35.0957Z" fill="white"/>
<path fill-rule="evenodd" clip-rule="evenodd" d="M189.869 45.2705C190.704 45.4118 191.604 45.2704 192.375 45.0331C193.494 44.7638 194.11 43.5368 194.488 42.5774H193.085L191.574 44.0569C190.976 44.37 190.408 44.8429 189.869 45.2705Z" fill="white"/>
<path fill-rule="evenodd" clip-rule="evenodd" d="M189.699 33.6617C189.936 34.8921 190.458 36.0097 191.168 37.065L191.355 34.717L189.699 33.6617Z" fill="white"/>
<path fill-rule="evenodd" clip-rule="evenodd" d="M194.868 39.7884C194.964 39.0007 194.633 38.085 194.541 37.2855C194.067 36.9691 193.407 36.9994 192.917 36.688C192.949 37.9285 193.923 38.9855 194.868 39.7884Z" fill="white"/>
<path fill-rule="evenodd" clip-rule="evenodd" d="M193.434 47.7901C194.426 47.4754 195.388 47.1287 196.305 46.6254C196.887 45.7889 197.768 45.0348 197.896 44.0586C197.167 44.2622 196.54 44.0249 195.862 44.3582C195.452 45.0971 195.198 45.9353 194.411 46.4689C194.285 47.0007 193.702 47.3643 193.434 47.7901Z" fill="white"/>
<path fill-rule="evenodd" clip-rule="evenodd" d="M194.978 49.7275L196.16 51.2709C196.792 51.4746 197.58 51.414 198.131 51.0521L197.708 49.6517C196.871 49.9631 195.877 49.8722 194.978 49.7275Z" fill="white"/>
<path fill-rule="evenodd" clip-rule="evenodd" d="M196.949 38.5765L197.405 40.6535C198.509 39.7581 198.736 38.4503 198.704 37.065C198.074 37.7888 197.709 38.2298 196.949 38.5765Z" fill="white"/>
<path fill-rule="evenodd" clip-rule="evenodd" d="M200.058 42.2441C200.073 42.5454 200.151 42.8282 200.322 43.0638C201.552 43.5065 201.678 44.9995 202.815 45.5667C203.553 45.9 204.407 45.4893 205.051 45.188C204.564 44.6376 204.013 44.2589 203.54 43.6782C203.21 43.5368 202.874 43.3315 202.893 42.9224L200.058 42.2441Z" fill="white"/>
<path fill-rule="evenodd" clip-rule="evenodd" d="M201.035 49.682C201.569 50.293 202.293 50.6111 203.05 50.7811C202.925 50.6094 203.131 50.7811 203.161 50.6734L202.214 48.593C201.741 48.6098 201.251 48.7058 200.811 48.6738C200.846 49.0205 200.922 49.3656 201.035 49.682Z" fill="white"/>
<path fill-rule="evenodd" clip-rule="evenodd" d="M202.706 39.9786C202.263 38.9552 202.081 37.708 201.951 36.5769C201.481 37.1442 200.991 37.5077 200.548 38.0867C200.343 39.2515 202.012 39.5359 202.706 39.9786Z" fill="white"/>
<path fill-rule="evenodd" clip-rule="evenodd" d="M204.627 38.9047C205.198 39.6487 206.442 39.3962 207.136 39.174C206.804 38.6068 205.736 38.2736 205.547 37.6642C205.439 36.5769 205.217 35.5182 204.868 34.5302C204.317 35.8666 203.65 37.4589 204.627 38.9047Z" fill="white"/>
<path fill-rule="evenodd" clip-rule="evenodd" d="M205.622 42.2441C207.199 43.3937 208.745 44.7335 210.949 44.2437C211.108 44.136 211.377 44.1478 211.408 43.9458C210.761 43.5368 210.068 43.2187 209.406 42.8416L208.651 41.7409H208.304C207.451 42.022 206.538 42.1364 205.622 42.2441Z" fill="white"/>
<path fill-rule="evenodd" clip-rule="evenodd" d="M205.654 55.0193H205.766C206.712 54.2636 207.831 54.0094 208.949 53.6964C209.251 53.8074 209.061 54.139 209.33 54.2636C210.007 53.9825 210.828 54.0431 211.521 53.8074C212.356 53.8377 213.035 53.8529 213.713 54.2148C214.252 54.9251 215.258 54.8443 215.954 55.3189L215.841 54.2148C214.377 52.4979 212.09 52.3734 209.977 52.4054L209.93 52.1849C209.426 52.1849 208.858 52.2926 208.385 52.5148C207.709 52.5468 207.061 52.8767 206.413 53.0803C206.112 53.6795 205.874 54.4083 205.654 55.0193Z" fill="white"/>
<path fill-rule="evenodd" clip-rule="evenodd" d="M206.92 35.6613C207.534 36.4658 208.448 37.0819 209.489 36.8765C208.955 36.3531 208.337 35.8027 208.307 35.0638C208.465 33.6617 206.92 33.5489 206.164 32.8252C206.417 33.7711 206.383 34.8264 206.92 35.6613Z" fill="white"/>
<path fill-rule="evenodd" clip-rule="evenodd" d="M206.759 57.8066H206.948C207.782 57.2882 208.996 57.6838 209.817 57.1317C210.274 56.8944 210.306 57.5255 210.621 57.6989C211.394 58.1685 211.49 59.5874 212.577 59.2575C213.883 59.9341 213.554 61.5247 213.601 62.6895L214.816 61.9354C214.705 61.3211 215.054 60.5805 214.658 60.0452C214.358 59.3686 213.537 59.3063 213.143 58.7559C213.618 57.9514 212.545 57.571 212.323 56.9886L212.388 56.9112L214.06 57.1317C214.628 57.4767 214.833 58.1079 215.007 58.692C216.312 58.9125 216.628 60.392 217.086 61.3362C217.355 60.6916 217.465 59.9964 217.733 59.3669C217.75 58.8468 217.056 58.8468 216.708 58.6112C216.616 57.8066 216.252 57.0526 215.542 56.5661C214.092 56.1992 212.816 55.3997 211.224 55.3997L209.9 55.807C209.172 55.9821 208.4 55.7616 207.847 56.2632C207.025 56.3271 206.964 57.2259 206.759 57.8066Z" fill="white"/>
<path fill-rule="evenodd" clip-rule="evenodd" d="M207.593 51.318L207.895 51.4611C208.542 51.1615 209.187 50.8148 209.866 50.5623C210.919 50.2644 211.74 51.4611 212.626 50.7037C212.955 50.4697 213.241 50.8148 213.49 51.005C213.875 51.6968 214.754 51.6496 215.418 51.8365C215.086 50.941 214.675 49.7123 213.524 49.5692C213.067 49.3656 212.53 49.3824 212.09 49.1131C210.875 47.775 210.088 50.2173 208.759 49.6197C208.289 50.1365 207.704 50.6279 207.593 51.318Z" fill="white"/>
<path fill-rule="evenodd" clip-rule="evenodd" d="M207.895 58.9899C208.398 59.4157 208.919 60.1412 209.709 60.0452C210.684 60.5014 210.275 61.794 210.809 62.4723L211.376 61.9674L211.329 61.9337L211.408 61.8563L211.442 61.9001C211.599 61.4305 211.378 60.5956 211.109 60.0419C210.748 59.7911 210.324 60.0587 209.975 59.8214C209.928 59.3147 209.613 59.0656 209.251 58.7526C208.998 58.5607 208.666 58.8132 208.381 58.7963L207.895 58.9899Z" fill="white"/>
<path fill-rule="evenodd" clip-rule="evenodd" d="M209.866 39.7884C210.385 40.6535 211.394 41.1905 212.199 41.788C212.863 42.0876 213.727 42.1667 214.438 42.0068C213.759 41.4564 213.142 40.8252 212.578 40.1654C212.356 39.849 212.308 39.4534 212.01 39.1724C211.269 39.3154 210.432 39.2986 209.866 39.7884Z" fill="white"/>
<path fill-rule="evenodd" clip-rule="evenodd" d="M210.735 34.1515C211.46 35.0486 212.58 34.6867 213.604 34.7187V34.6076L212.027 33.2847C211.586 33.4244 211.114 33.8182 210.735 34.1515Z" fill="white"/>
<path fill-rule="evenodd" clip-rule="evenodd" d="M181.707 19.2959L182.62 22.132C182.603 20.5246 183.348 19.1831 183.189 17.5471L183.865 16.5372L182.43 16.9799C182.052 17.7036 181.737 18.4291 181.707 19.2959Z" fill="white"/>
<path fill-rule="evenodd" clip-rule="evenodd" d="M182.322 14.3811L183.567 13.6573V11.8126C183.043 12.1273 182.762 12.666 182.352 13.0867L182.322 14.3811Z" fill="white"/>
<path fill-rule="evenodd" clip-rule="evenodd" d="M207.898 17.2475C207.598 17.6397 207.141 17.7373 206.762 17.8131C207.426 16.6029 207.741 14.9163 207.221 13.5446C207.566 13.42 207.945 13.356 208.275 13.1675L208.243 13.1339L209.111 12.3781C210.262 11.5904 209.819 10.0958 210.245 8.97646C209.679 8.09617 209.505 7.024 208.685 6.28341L208.732 6.25143C208.085 5.43173 206.919 5.52767 206.036 5.11866C204.867 4.7248 203.969 5.52767 203.131 6.06291C202.769 6.12687 202.991 6.59816 202.597 6.58133C202.376 7.1637 202.107 7.79489 201.948 8.44122C200.388 8.22073 198.701 8.39409 197.456 9.27607C196.791 8.78627 195.99 8.69369 195.217 8.4732C194.649 8.36043 194.004 8.56577 193.594 8.25102C192.996 7.57607 192.867 6.34568 191.84 6.174C191.478 6.04608 191.402 5.65222 191.402 5.30549C190.723 5.19272 190.122 4.87965 189.463 4.73827C188.454 4.28045 187.65 5.00757 186.893 5.49401C186.56 5.63371 186.182 5.68252 185.867 5.87103C185.301 6.75469 184.767 7.65182 184.4 8.62805C184.513 9.43092 184.858 10.1378 185.269 10.8178C185.631 11.8412 186.767 12.6458 187.727 13.0564C187.271 14.6151 187.271 16.4716 187.727 18.047C187.727 18.047 187.702 18.0689 187.702 18.0638C187.702 18.0689 187.652 18.111 187.652 18.111C187.503 18.111 187.338 18.1396 187.215 18.0638H187.195C187.421 19.5686 188.128 20.8882 189.274 22.0176C189.685 22.159 189.589 22.6488 189.761 22.9618C189.872 23.1049 189.889 23.4028 189.842 23.5291C187.38 23.4516 185.188 24.066 183.217 25.1836C182.713 25.4361 182.934 26.1279 182.887 26.6177C184.275 25.702 185.771 25.0271 187.427 24.7258C188.137 24.682 188.939 24.5053 189.62 24.6938L189.697 26.0521C187.823 27.03 185.771 27.5956 184.165 29.203C184.196 29.6894 184.101 30.255 184.243 30.6657L185.68 29.5009C187.067 28.4439 188.518 27.5468 190.108 26.9644C190.536 27.4677 190.978 28.0063 191.545 28.3193C192.506 27.7033 193.549 27.2472 194.653 26.9644C195.236 26.6177 196.167 26.9324 196.545 26.2406L196.811 24.8066C196.767 24.7746 196.733 24.7106 196.654 24.7258C195.915 24.3 195.424 23.561 195.488 22.6959C195.236 22.8205 194.954 22.9012 194.653 22.913C194.403 22.8524 194.164 22.7885 194.054 22.5343C194.039 22.2213 193.879 21.7483 194.198 21.5143C195.22 20.8831 196.546 20.8512 197.839 20.9454C198.799 21.0733 200.188 21.0245 200.521 22.159C200.474 22.4906 200.504 22.8541 200.172 23.0729C199.825 23.2614 199.433 23.0561 199.116 22.913C198.865 23.6873 198.439 24.5524 197.573 24.8049L197.68 25.7172C197.788 26.1279 197.822 26.8045 198.469 26.6614C199.967 27.0267 201.293 27.7976 202.6 28.6307C203.044 28.1914 203.389 27.6865 203.702 27.2287C206.039 28.0197 208.055 29.7669 209.982 31.3911L210.058 30.0665C208.228 28.4422 206.196 27.2943 204.082 26.3972C204.162 25.9713 204.257 25.5606 204.274 25.1028C206.779 25.2459 209.16 26.0185 211.224 27.2287L211.192 26.0959C209.017 24.9295 206.636 24.1586 204.036 24.1283C203.938 23.9869 203.908 23.7815 203.925 23.6402C205.187 23.4365 206.083 22.1304 206.385 20.9925C207.034 20.2536 207.964 19.4491 207.743 18.3483C207.77 18.2557 207.802 18.1598 207.836 18.0638C207.918 17.7929 207.989 17.5034 207.898 17.2475Z" fill="white"/>
<path fill-rule="evenodd" clip-rule="evenodd" d="M210.088 21.2972L211.38 20.8865L211.525 20.1644C211.887 19.1074 211.114 18.3197 210.735 17.4848L210.088 21.2972Z" fill="white"/>
<path fill-rule="evenodd" clip-rule="evenodd" d="M213.352 26.2878C213.967 26.9661 214.567 28.0517 215.655 27.7218C215.574 27.264 215.321 26.8853 215.166 26.4763C214.883 26.1464 214.786 25.2004 214.22 25.532C213.793 25.2493 213.686 24.7763 213.414 24.3976C213.291 24.9816 213.369 25.7054 213.352 26.2878Z" fill="white"/>
<path fill-rule="evenodd" clip-rule="evenodd" d="M213.573 30.903C213.81 31.2329 213.876 31.6604 214.108 31.96C214.535 32.2411 215.166 32.194 215.688 32.1485C216.158 32.0374 216.46 32.5559 216.9 32.2579C216.349 31.9112 216.019 31.2817 215.5 30.8222C214.883 30.3374 214.221 30.7633 213.573 30.903Z" fill="white"/>
<path fill-rule="evenodd" clip-rule="evenodd" d="M214.41 38.2298C215.498 38.8744 216.88 39.5056 218.332 39.2851C218.488 39.2077 218.758 39.2229 218.788 39.0343C217.889 38.7179 216.945 37.8208 216.002 37.6323C215.481 36.8294 214.803 37.8376 214.141 37.7737C214.156 37.9605 214.344 38.1019 214.41 38.2298Z" fill="white"/>
<path fill-rule="evenodd" clip-rule="evenodd" d="M217.684 52.1377L217.922 52.641C218.161 54.2804 219.197 55.7902 218.631 57.5861C219.104 57.9194 219.246 58.4698 219.547 58.9108H219.625C219.987 57.5424 219.736 56.1235 219.547 54.7517C219.689 53.5078 218.425 52.7841 217.684 52.1377Z" fill="white"/>
<path fill-rule="evenodd" clip-rule="evenodd" d="M217.957 36.008C218.776 36.6392 220.085 36.6998 221.03 36.3867C220.432 36.0568 219.77 35.6916 219.279 35.2523L217.957 36.008Z" fill="white"/>
<path fill-rule="evenodd" clip-rule="evenodd" d="M221.849 40.8421C221.772 41.5052 222.211 42.0556 222.685 42.3889C222.858 41.9967 223.14 41.6618 223.172 41.2225C223.03 40.5458 222.651 39.9298 222.036 39.472C221.929 39.913 221.8 40.3388 221.849 40.8421Z" fill="white"/>
<path fill-rule="evenodd" clip-rule="evenodd" d="M221.897 48.0275C221.784 48.7664 222.604 48.8623 222.949 49.2713C223.234 49.6181 222.761 49.8554 222.761 50.1853C223.36 50.9562 223.709 51.8348 223.709 52.8615C223.943 51.9021 224.305 50.9882 224.433 49.9968C224.369 49.3016 223.268 49.4464 223.44 48.6738C223.756 47.8861 223.377 47.1152 223.172 46.4032C223.111 46.2955 222.966 46.0733 222.843 46.139C222.557 46.7819 221.849 47.2398 221.897 48.0275Z" fill="white"/>
<path fill-rule="evenodd" clip-rule="evenodd" d="M224.057 44.2774L224.875 45.868C225.237 45.8208 225.473 45.4741 225.756 45.2216C225.977 44.5602 225.392 44.1343 225.222 43.5974C225.079 43.2187 225.222 42.7171 224.953 42.3872C224.747 42.2593 224.513 42.0539 224.277 42.1179L224.057 44.2774Z" fill="white"/>
<path fill-rule="evenodd" clip-rule="evenodd" d="M225.11 40.0863C225.758 40.4802 226.498 41.0457 226.847 41.7409C227.398 43.3483 228.281 44.7941 228.926 46.3544C229.164 47.4417 229.352 48.4129 229.651 49.4817C229.763 49.7662 229.699 50.3166 230.143 50.2694C230.266 49.0727 230.503 47.9214 230.52 46.6776C230.126 46.1575 229.607 45.9387 229.116 45.6239V45.5128C229.18 45.2469 229.403 44.9288 229.731 44.9793C229.871 44.821 230.299 44.6645 230.111 44.3801C229.29 43.562 229.337 42.1532 228.031 41.8991C227.573 41.7106 227.464 41.2359 227.416 40.7983C226.8 40.2748 225.886 40.1031 225.11 40.0863Z" fill="white"/>
<path fill-rule="evenodd" clip-rule="evenodd" d="M225.871 48.625C226.673 49.3639 226.392 50.4361 226.328 51.4291C226.203 52.0283 226.958 51.6782 227.195 51.9964C227.685 52.7201 227.401 53.7771 227.229 54.5632C227.655 53.9152 228.142 53.3496 228.472 52.6393C228.459 52.3734 228.804 52.2455 228.789 51.9139C228.929 51.4578 228.395 51.6631 228.172 51.616C227.984 51.5688 227.78 51.4426 227.844 51.1901C228.25 50.4024 227.874 49.4582 227.716 48.6704C227.527 48.0241 227.797 47.1573 227.493 46.59C226.988 47.2869 225.489 47.4434 225.871 48.625Z" fill="white"/>
<path fill-rule="evenodd" clip-rule="evenodd" d="M227.335 37.4421C228.74 38.861 229.764 40.2849 231.277 41.6567C231.309 41.0407 231.23 40.4751 231.2 39.8759C230.979 39.4501 230.568 39.137 230.219 38.8189C229.101 38.7112 228.518 37.2047 227.335 37.4421Z" fill="white"/>
<path fill-rule="evenodd" clip-rule="evenodd" d="M231.007 44.9473C231.041 45.092 231.105 45.2166 231.169 45.3563C231.782 46.3662 232.366 47.4064 232.793 48.492C232.665 47.3256 233.453 45.8781 232.41 44.9793C232.27 44.5989 231.8 44.7268 231.497 44.7571L231.007 44.9473Z" fill="white"/>
<path fill-rule="evenodd" clip-rule="evenodd" d="M234.793 56.4534C235.235 56.6587 235.802 56.2968 236.229 56.0444C236.623 55.9501 236.953 56.1723 237.255 56.3759C237.38 56.6267 237.255 56.8641 237.302 57.1014C238.247 57.3673 239.176 57.7157 240.012 58.2661L240.278 57.9985C240.342 57.3219 239.808 56.8321 239.3 56.4534C238.972 56.2648 238.48 56.3759 238.246 56.0763C238.404 55.8239 238.404 55.4452 238.387 55.1624C237.867 55.1624 237.535 55.0025 237.112 54.7534C236.842 54.6743 236.605 54.4521 236.384 54.7534C235.597 55.2869 235.55 56.0763 234.793 56.4534Z" fill="white"/>
<path fill-rule="evenodd" clip-rule="evenodd" d="M235.9 36.6325C236.293 36.5197 236.704 36.4103 237.034 36.1258C238.092 35.1648 239.619 35.8111 240.851 35.7959C240.613 35.3701 240.28 34.9443 239.982 34.5824C239.539 34.409 239.129 34.2054 238.626 34.2054C237.553 33.5742 236.83 34.6312 236.008 35.1496C235.786 35.5754 235.678 36.2049 235.9 36.6325Z" fill="white"/>
<path fill-rule="evenodd" clip-rule="evenodd" d="M235.927 39.8759C235.927 39.8271 235.927 39.7783 235.974 39.7665C236.119 39.8911 235.959 40.194 236.197 40.2546C236.606 40.0493 236.985 39.7665 237.363 39.4989C238.419 39.4989 239.051 38.4738 240.089 38.4738C241.826 38.7903 243.545 39.1387 245.056 39.9853C244.948 38.9653 244.062 38.0329 243.166 37.5767C242.659 37.4034 242.264 37.671 241.904 37.9554C240.849 38.6186 241.4 36.9943 240.66 36.9624C239.696 37.2603 238.702 37.5936 237.631 37.4959C237.001 37.7349 236.557 38.3156 235.848 38.2517C235.819 38.7751 235.742 39.4063 235.927 39.8759Z" fill="white"/>
<path fill-rule="evenodd" clip-rule="evenodd" d="M236.655 43.387C236.985 43.7371 237.536 43.6731 238.011 43.7371L239.383 43.1985C239.398 42.9511 238.974 42.8837 239.068 42.601C239.447 42.1751 239.964 42.4764 240.439 42.303C241.1 42.2071 241.779 41.549 242.441 42.0337C242.421 42.1145 242.47 42.2223 242.407 42.303C242.204 42.7912 242.549 43.0908 242.928 43.2793C243.702 43.4207 244.424 44.131 245.198 43.8128C245.12 43.1665 244.948 42.5723 244.79 41.9546C244.143 41.8452 243.685 41.31 243.086 41.0878C242.82 41.3403 242.47 41.5288 242.14 41.4968C240.925 41.2124 239.472 40.4566 238.244 41.2292C237.802 41.7661 237.014 41.6079 236.414 41.8435C236.449 42.3788 236.512 42.9006 236.655 43.387Z" fill="white"/>
<path fill-rule="evenodd" clip-rule="evenodd" d="M237.176 52.7521C237.081 53.0197 236.814 53.459 237.304 53.5869C238.311 53.6172 239.605 53.0971 240.393 53.8849C240.661 54.0902 240.533 54.516 240.516 54.7837L241.84 55.8861C241.966 55.2213 242.206 54.6238 242.222 53.9152C242.111 53.4102 241.859 52.9238 241.417 52.5939C240.548 52.5939 240.046 51.5789 239.113 51.7035C238.626 51.5958 238.2 52.0283 237.71 52.0283C237.492 52.2471 237.364 52.5165 237.176 52.7521Z" fill="white"/>
<path fill-rule="evenodd" clip-rule="evenodd" d="M237.553 45.3243C237.757 45.7502 237.996 46.4436 238.389 46.4891C239.319 46.0834 240.677 45.8293 241.717 46.2719C242.062 46.3325 242.062 46.7264 241.986 46.9789C242.52 47.2936 243.167 47.5461 243.735 47.8911L243.577 46.9452C243.545 45.9218 242.254 45.8293 242.173 44.8194C241.117 44.4743 239.934 44.3615 238.815 44.6309C238.453 44.9608 237.931 44.917 237.492 45.0096C237.46 45.1358 237.536 45.2166 237.553 45.3243Z" fill="white"/>
<path fill-rule="evenodd" clip-rule="evenodd" d="M237.821 50.4293C238.436 50.2543 238.832 49.5793 239.494 49.5154C240.501 49.5322 241.4 49.9429 242.032 50.8114C242.409 51.0588 242.33 51.7052 242.821 51.7052C242.676 50.9343 242.928 50.2274 242.896 49.4363C242.238 48.3355 240.597 49.1872 239.982 47.8928L238.817 47.9719C237.979 48.1789 238.202 49.1552 238.092 49.8183C237.996 50.0203 237.808 50.1785 237.821 50.4293Z" fill="white"/>
<path fill-rule="evenodd" clip-rule="evenodd" d="M243.611 57.3202C244.097 58.2964 245.172 59.037 245.28 60.1546C245.531 59.8567 245.706 59.51 245.878 59.1784C245.861 58.8636 245.499 58.8637 245.359 58.6112C245.214 58.2022 245.435 57.8403 245.499 57.4767C245.293 56.8944 244.803 56.344 244.254 55.9955L243.611 57.3202Z" fill="white"/>
<path fill-rule="evenodd" clip-rule="evenodd" d="M245.55 54.8308L246.683 56.3759C247.17 55.605 247.17 54.4689 246.982 53.5398C246.874 53.3648 246.667 53.082 246.385 53.2099C245.959 53.6492 245.895 54.3275 245.55 54.8308Z" fill="white"/>
<path fill-rule="evenodd" clip-rule="evenodd" d="M240.928 11.715C241.337 11.9203 241.731 12.1088 242.223 12.1408C242.552 11.9674 242.98 11.8395 243.389 11.9523C243.972 12.331 244.681 11.8732 245.36 11.9052C244.76 11.3379 244.08 10.9895 243.389 10.6596C242.505 10.8465 241.797 11.4776 240.928 11.715Z" fill="white"/>
<path fill-rule="evenodd" clip-rule="evenodd" d="M247.093 13.1928C247.929 13.2719 248.53 14.0125 249.094 14.6268C249.804 14.7346 250.339 15.2412 250.764 15.7596L250.499 14.9264C250.311 14.0899 249.787 13.4436 249.253 12.7821C248.496 12.8309 247.754 12.8965 247.093 13.1928Z" fill="white"/>
<path fill-rule="evenodd" clip-rule="evenodd" d="M188.25 6.28509L188.708 6.3339C189.935 6.94825 191.921 7.26301 192.036 9.04211C190.787 9.53191 189.589 10.1917 188.595 11.1999C187.84 10.429 186.31 10.8532 186.056 9.49993C186.295 8.22072 186.75 6.61331 188.25 6.28509Z" fill="#FF6600"/>
<path fill-rule="evenodd" clip-rule="evenodd" d="M189.434 14.2734C190.87 14.1454 192.256 14.3491 193.739 14.2246C194.1 14.3811 194.477 14.6942 194.652 15.0577C194.604 16.7594 194.085 18.3836 194.007 20.1308C193.36 20.3967 192.728 20.9353 192.57 21.6422C191.987 21.8156 191.464 22.1607 190.897 22.4283C190.649 21.8947 190.693 21.0902 191.136 20.6475C191.751 19.7824 193.345 19.9843 193.219 18.6142C193.628 17.9544 193.235 17.1028 193.247 16.411C193.09 15.8892 192.932 16.5843 192.681 16.5675C192.177 16.6752 191.658 16.7072 191.215 16.4547C190.883 16.108 190.477 15.8236 190.379 15.354C189.936 15.1335 189.419 14.7884 189.197 14.3306L189.434 14.2734Z" fill="#FF6600"/>
<path fill-rule="evenodd" clip-rule="evenodd" d="M191.168 24.539C191.842 24.6366 192.554 24.3336 193.137 24.6669C193.014 24.8891 192.681 24.9816 192.413 25.0456L191.355 25.532C190.962 25.4395 191.183 24.8083 191.168 24.539Z" fill="#FF6600"/>
<path fill-rule="evenodd" clip-rule="evenodd" d="M193.926 11.3884C194.601 11.1679 195.329 10.7135 196.053 10.9306C195.535 11.4524 195.125 12.1273 194.731 12.7585L192.572 12.7114C192.809 12.1425 193.407 11.6729 193.926 11.3884Z" fill="#FF6600"/>
<path fill-rule="evenodd" clip-rule="evenodd" d="M200.25 10.87C201.147 10.7135 201.098 11.8782 201.919 11.922C202.064 12.1105 202.269 12.2839 202.188 12.5683C201.713 12.7568 201.021 12.666 200.485 12.7888C199.775 12.395 200.234 11.1663 199.114 11.2454C199.052 11.1494 198.927 10.9609 199.082 10.8986C199.429 10.7741 199.889 10.8212 200.25 10.87Z" fill="#FF6600"/>
<path fill-rule="evenodd" clip-rule="evenodd" d="M199.682 15.088C200.076 14.5359 200.676 14.4905 201.244 14.3811L205.328 14.4568C205.502 14.6167 205.17 14.7581 205.17 14.9466C204.919 15.184 204.555 15.2479 204.334 15.4667C203.799 15.4819 203.846 16.1131 203.468 16.3824C202.884 16.9647 202.031 16.6954 201.354 16.6029C201.118 16.4278 200.85 16.1922 200.737 15.9245L200.548 16.1131C200.786 16.9967 200.723 17.973 200.899 18.8701L201.876 19.5164C201.891 20.9639 203.595 20.5701 204.334 21.3746C204.161 21.8964 203.814 22.3357 203.436 22.7767C202.838 22.1943 202.157 21.8173 201.435 21.5631C201.37 20.7165 200.44 20.2099 199.923 19.7857C199.778 18.2406 199.748 16.6651 199.497 15.1688L199.682 15.088Z" fill="#FF6600"/>
<path fill-rule="evenodd" clip-rule="evenodd" d="M201.165 24.8083H203.058L202.821 25.7997L200.926 24.9968C200.882 24.8403 201.054 24.7931 201.165 24.8083Z" fill="#FF6600"/>
<path fill-rule="evenodd" clip-rule="evenodd" d="M204.57 6.9634L205.974 6.52242C206.779 6.89944 207.534 7.37073 208.275 7.90766C208.858 8.97815 208.766 10.4273 208.496 11.6241C208.07 12.0954 207.14 11.6241 206.794 12.3798H206.728C206.21 10.9003 204.727 9.57399 203.355 8.90072C203.576 8.1433 203.814 7.40271 204.57 6.9634Z" fill="#FF6600"/>
</g>
<defs>
<clipPath id="clip0_345_2855">
<rect width="270" height="68.5385" fill="white"/>
</clipPath>
</defs>
</svg>
