<svg width="270" height="105" viewBox="0 0 270 105" fill="none" xmlns="http://www.w3.org/2000/svg">
<g opacity="0.2" clip-path="url(#clip0_345_2838)">
<path d="M270 0H203.985V105H270V0Z" fill="#00A124"/>
<path d="M196.47 0H152.01V105H196.47V0Z" fill="#EE0303"/>
<path d="M152.01 0H87.3V105H152.01V0Z" fill="#FF9200"/>
<path d="M76.23 0H0V105H76.23V0Z" fill="#FF1802"/>
<path d="M87.3 0H76.23V105H87.3V0Z" fill="#1C150F"/>
<path d="M203.985 0H196.425V105H203.985V0Z" fill="#0078C1"/>
<path d="M103.005 50.2708H107.415C110.385 50.2708 112.05 49.8159 113.13 48.7695C114.12 47.8596 114.525 46.4948 114.525 44.3111C114.525 43.0373 114.255 41.3085 112.995 40.1711C111.915 39.1703 110.205 38.7608 107.1 38.7608H102.96L103.005 50.2708ZM103.005 69.1508H108.405C114.48 69.1508 116.73 67.422 116.73 62.7816C116.73 60.5979 116.19 59.0966 115.11 58.1413C113.715 56.9584 111.87 56.5035 108.45 56.5035H103.005V69.1508ZM92.8799 76.5663V38.7153H88.6049V31.3453H108.81C115.155 31.3453 118.755 32.3007 121.32 34.5754C123.57 36.6226 124.74 39.4432 124.74 42.8098C124.74 46.9042 122.85 50.2708 119.565 52.0451L119.34 52.1815L119.565 52.2725C124.695 53.8193 127.395 57.5953 127.395 63.2821C127.395 68.7413 125.325 72.4263 121.05 74.5646C118.395 75.9294 114.75 76.5663 109.26 76.5663H92.8799ZM191.475 76.5663V55.4116C191.475 53.2734 191.295 51.7721 190.395 50.4983C189.495 49.3154 188.01 48.6785 186.165 48.6785C184.23 48.6785 182.655 49.4064 181.575 50.7712C180.45 52.2725 180.225 54.1833 180.225 56.6399V76.5663H170.505V48.906H166.455V41.8544H176.4L178.02 46.0399L178.11 45.9034C180.54 42.9008 184.32 41.2175 188.775 41.2175C192.825 41.2175 196.11 42.4003 198.225 44.5841C200.295 46.8133 201.195 49.6794 201.195 53.9103V76.5663H191.475ZM235.35 76.9757C231.66 76.9757 229.365 75.5199 227.205 71.8349L220.95 61.2803H217.98V76.5663H208.26V34.8484H204.21V27.7968H217.98V53.9558H221.355L228.285 41.8544H238.005L229.095 57.3224L235.755 68.4684C236.61 69.8787 237.24 70.3336 238.365 70.3336C239.22 70.3336 240.255 70.0152 240.975 69.4692L241.335 69.1963L241.02 75.338L240.93 75.3834C239.625 76.3388 237.51 76.9757 235.35 76.9757ZM81.3149 76.9757C78.435 76.9757 76.365 76.1568 75.195 74.4736C74.34 73.2452 73.8899 71.38 73.8899 68.8323V55.3661C73.8899 53.1824 73.8 51.7721 72.9 50.4528C72 49.3154 70.5149 48.633 68.805 48.633C67.005 48.633 65.43 49.3609 64.44 50.6802C63.495 51.9996 63.09 53.6828 63.09 56.5035V76.5208H53.37V55.3661C53.37 53.1824 53.28 51.7721 52.38 50.4528C51.525 49.3154 49.995 48.633 48.285 48.633C46.485 48.633 44.91 49.3609 43.92 50.6802C42.975 51.9996 42.57 53.6828 42.57 56.5035V76.5208H32.76V48.8605H28.71V41.8089H38.61L40.185 45.9489L40.32 45.8124C42.57 42.8553 46.395 41.172 50.85 41.172C55.53 41.172 58.95 42.6733 61.02 45.5849L61.11 45.6759L61.2 45.5849C62.595 43.9471 65.745 41.172 71.46 41.172C76.05 41.172 79.695 42.7188 81.6299 45.5849C83.0249 47.5867 83.61 50.0888 83.61 53.9558V68.3774C83.61 70.0607 84.375 70.2881 85.095 70.2881C85.86 70.2881 87.0749 69.8332 87.6149 69.4237L87.9749 69.1508L87.66 75.065L87.57 75.1105C86.31 76.0659 84.0149 76.9757 81.3149 76.9757ZM146.79 59.5971C143.145 59.5971 141.03 61.6443 141.03 65.1928C141.03 68.6958 142.875 70.6976 146.16 70.6976C147.735 70.6976 149.175 70.1062 150.075 69.1508C150.975 68.1954 151.425 66.7396 151.425 64.9653V60.3705L151.38 60.325C150.3 59.961 148.455 59.5971 146.79 59.5971ZM143.505 77.2032C135.945 77.2032 131.265 72.7448 131.265 65.6023C131.265 58.1867 136.305 53.7738 144.765 53.7738C146.88 53.7738 149.4 54.1378 151.29 54.7747L151.425 54.8202V54.1833C151.425 51.7721 151.11 50.5438 150.165 49.4519C149.13 48.2691 147.285 47.6776 144.675 47.6776C141.345 47.6776 137.79 48.5875 134.64 50.1798L134.325 50.3163V43.4922L134.46 43.4467C137.655 41.9909 141.795 41.172 146.16 41.172C151.65 41.172 155.52 42.3549 158.13 44.8115C160.245 46.7678 161.19 49.6339 161.19 53.7283V68.3774C161.19 69.7422 161.595 70.2881 162.585 70.2881C163.35 70.2881 164.655 69.7877 165.195 69.4237L165.555 69.1508L165.15 75.065L165.06 75.1105C163.485 76.2023 161.055 76.9302 158.715 76.9302C155.79 76.9302 153.585 75.7474 152.685 73.7002L152.64 73.5637L152.55 73.7002C150.57 75.8839 147.195 77.2032 143.505 77.2032Z" fill="white"/>
</g>
<defs>
<clipPath id="clip0_345_2838">
<rect width="270" height="105" fill="white"/>
</clipPath>
</defs>
</svg>
