<svg width="36" height="36" viewBox="0 0 36 36" fill="none" xmlns="http://www.w3.org/2000/svg">
<g clip-path="url(#clip0_345_1805)">
<path d="M17.1997 9.89262L18.6519 12.7969H31.0078V9.14062H24.3281C22.9712 9.14062 21.8672 8.03665 21.8672 6.67969V0H6.04688C5.46441 0 4.99219 0.472219 4.99219 1.05469V7.17188H12.7974C14.6737 7.17188 16.3606 8.2144 17.1997 9.89262Z" fill="#03466E"/>
<path d="M24.3281 7.03158H30.39L23.9766 0.618164V6.68001C23.9766 6.87387 24.1343 7.03158 24.3281 7.03158Z" fill="#03466E"/>
<path d="M19.0547 23.3438V20.8828H16.9453V23.3438C16.9453 23.9262 16.4731 24.3984 15.8906 24.3984H13.4297V26.5078H15.8906C16.4731 26.5078 16.9453 26.98 16.9453 27.5625V30.0234H19.0547V27.5625C19.0547 26.98 19.5269 26.5078 20.1094 26.5078H22.5703V24.3984H20.1094C19.5269 24.3984 19.0547 23.9262 19.0547 23.3438Z" fill="#03466E"/>
<path d="M33.1875 14.9062H18C17.6005 14.9062 17.2353 14.6805 17.0566 14.3232L15.313 10.8359C14.8366 9.88312 13.8627 9.28125 12.7974 9.28125H2.8125C1.25923 9.28125 0 10.5405 0 12.0938V33.1875C0 34.7408 1.25923 36 2.8125 36H33.1875C34.7408 36 36 34.7408 36 33.1875V17.7188C36 16.1655 34.7408 14.9062 33.1875 14.9062ZM24.6797 27.5625C24.6797 28.145 24.2075 28.6172 23.625 28.6172H21.1641V31.0781C21.1641 31.6606 20.6918 32.1328 20.1094 32.1328H15.8906C15.3082 32.1328 14.8359 31.6606 14.8359 31.0781V28.6172H12.375C11.7925 28.6172 11.3203 28.145 11.3203 27.5625V23.3438C11.3203 22.7613 11.7925 22.2891 12.375 22.2891H14.8359V19.8281C14.8359 19.2457 15.3082 18.7734 15.8906 18.7734H20.1094C20.6918 18.7734 21.1641 19.2457 21.1641 19.8281V22.2891H23.625C24.2075 22.2891 24.6797 22.7613 24.6797 23.3438V27.5625Z" fill="#03466E"/>
<path d="M33.1172 8.70508V12.7964H33.1875C34.2327 12.7964 35.2021 13.1249 36 13.6826V12.4449C36 10.6526 34.7743 9.14158 33.1172 8.70508Z" fill="#03466E"/>
</g>
<defs>
<clipPath id="clip0_345_1805">
<rect width="36" height="36" fill="white"/>
</clipPath>
</defs>
</svg>
