<svg width="32" height="32" viewBox="0 0 32 32" fill="none" xmlns="http://www.w3.org/2000/svg">
<g clip-path="url(#clip0_316_111)">
<path d="M11.666 10.6666C17.7707 10.6666 22.3321 8.25329 22.3321 6.09544C22.3321 3.93779 17.7706 1.52441 11.666 1.52441C5.56147 1.52441 1 3.93779 1 6.09544C1 8.25329 5.56137 10.6666 11.666 10.6666Z" fill="#AB1D22"/>
<path d="M11.666 28.9515C12.557 28.9515 13.4146 28.8997 14.2304 28.8053C13.5428 27.9216 12.9741 26.941 12.5481 25.8878C12.2554 25.8977 11.9617 25.9045 11.6659 25.9045C8.17774 25.9045 4.87436 25.2133 2.36457 23.9584C1.8704 23.7113 1.41564 23.4458 1 23.1648V24.3805C1 26.5382 5.56137 28.9515 11.666 28.9515Z" fill="#AB1D22"/>
<path d="M11.6661 22.8566C11.6974 22.8566 11.7282 22.8561 11.7594 22.856C11.6969 22.3565 11.6643 21.8478 11.6643 21.3317C11.6643 20.8158 11.6968 20.3074 11.7594 19.8083C11.7282 19.8083 11.6973 19.8094 11.6661 19.8094C8.17794 19.8094 4.87467 19.1183 2.36477 17.8633C1.8705 17.6162 1.41564 17.3507 1 17.0698V18.2855C1.0001 20.4432 5.56147 22.8566 11.6661 22.8566Z" fill="#AB1D22"/>
<path d="M11.6661 16.7615C11.9685 16.7615 12.2668 16.7554 12.5613 16.7438C13.0344 15.5833 13.6808 14.5113 14.469 13.5606C13.5565 13.6612 12.6186 13.7146 11.6661 13.7146C8.17794 13.7146 4.87467 13.0234 2.36477 11.7684C1.8705 11.5213 1.41564 11.2559 1 10.9749V12.1906C1.0001 14.3483 5.56147 16.7615 11.6661 16.7615Z" fill="#AB1D22"/>
<path d="M15.2381 16.2807C14.5787 17.272 14.1076 18.3986 13.8759 19.6093C13.7689 20.1673 13.7124 20.7431 13.7124 21.3319C13.7124 21.7745 13.7447 22.2098 13.8058 22.6358C13.9558 23.6823 14.2837 24.6719 14.7578 25.5734C15.2552 26.5194 15.9132 27.3682 16.6958 28.083C18.3222 29.5685 20.4853 30.4757 22.8563 30.4757C27.8982 30.4757 32.0001 26.3738 32.0001 21.3319C32.0001 16.2898 27.8982 12.188 22.8563 12.188C22.3352 12.188 21.8242 12.2325 21.3266 12.3166C18.7919 12.7453 16.6088 14.2204 15.2381 16.2807Z" fill="#AB1D22"/>
<rect x="25.2651" y="0.534029" width="7" height="37.7304" transform="rotate(45 25.2651 0.534029)" fill="#AB1D22" stroke="white" stroke-width="2"/>
</g>
<defs>
<clipPath id="clip0_316_111">
<rect width="32" height="32" fill="white"/>
</clipPath>
</defs>
</svg>
