<svg width="270" height="40" viewBox="0 0 270 40" fill="none" xmlns="http://www.w3.org/2000/svg">
<g opacity="0.2" clip-path="url(#clip0_345_3005)">
<path d="M68.8716 0.402662V39.756H70.3398L70.3696 0.418382L68.8716 0.402662Z" fill="#D71A20"/>
<path d="M20.8672 0.000438105C17.502 -0.0244537 13.7025 1.00862 9.52096 3.80139C9.52039 3.80139 10.7748 6.98055 8.15587 10.3317C8.15534 10.3317 8.22437 10.3659 8.22678 10.3651C10.7655 8.95938 22.8595 -1.65108 35.9719 11.0349C35.9719 11.0349 56.6735 9.22767 51.1829 27.2601C51.1829 27.2601 58.505 29.8876 57.6183 39.7681C57.6183 39.7681 57.7046 39.7725 57.707 39.7681C58.0143 39.1361 62.3016 30.5217 55.5264 26.5401C55.5264 26.5401 58.2659 20.1861 53.1508 14.3C50.5495 11.3051 45.7831 8.44474 37.0533 9.64514C37.0529 9.64514 30.9626 0.0751443 20.8672 0.000438105ZM0.000763642 0.368814C0.000763642 0.36881 -0.000954552 0.451019 0.000763642 0.452534C1.15056 1.05728 8.1429 5.25318 0.302148 10.2647L5.15975 30.0062C5.15975 30.0062 11.9694 24.79 17.6229 27.1764C21.2303 28.6996 22.1608 32.9061 21.47 39.45C21.47 39.45 21.5731 39.456 21.5763 39.45C22.0947 38.3011 28.78 26.575 18.5979 23.0238C16.6771 22.3531 13.9707 22.1437 9.1132 23.8275L4.61017 11.621C4.61017 11.621 11.7571 2.47026 0.000763642 0.368814ZM42.5491 24.9996C38.7276 25.1811 36.4328 27.8127 36.4328 27.8127C30.4062 22.254 25.0866 28.3485 25.0866 28.3485C29.0005 32.0588 27.1076 39.7681 27.1076 39.7681C27.1059 39.7637 27.1931 39.7736 27.1963 39.7681C30.4459 34.7483 30.0505 29.8053 30.0505 29.8052C33.3026 28.8671 35.2273 32.2332 35.2273 32.2332C39.2945 28.0159 43.3629 27.7453 45.5807 29.0518C51.0833 32.2953 49.1973 39.45 49.1973 39.45C49.1973 39.4522 49.3029 39.453 49.3037 39.45C53.9101 31.0146 49.7344 27.0341 46.8571 25.8201C45.2707 25.15 43.823 24.9391 42.5491 24.9996Z" fill="#D71A20"/>
<path fill-rule="evenodd" clip-rule="evenodd" d="M218.072 24.6125C218.072 24.4093 218.248 24.4485 218.497 24.4485H219.084C219.137 24.4481 219.192 24.443 219.344 24.4545C219.344 24.4545 219.891 24.532 220.351 24.9985L227.121 33.3842L231.61 33.3882L224.719 24.5354L223.389 22.9785C223.335 22.8974 223.355 22.7964 223.593 22.556L230.278 15.3446L230.897 14.7174C230.962 14.6369 231.124 14.5224 230.762 14.5224H227.585H227.06C226.535 14.5224 226.554 14.4839 226.24 14.8013L220.109 21.4805C220.109 21.4805 219.755 21.9628 219.306 21.9628H218.539C218.497 21.9615 218.428 21.9619 218.316 21.9619C218.249 21.951 218.115 21.9618 218.087 21.7961C218.077 21.7304 218.07 21.6868 218.069 21.5066V6.12522H213.902V33.3858H218.067V24.8019L218.072 24.6125ZM260.621 14.0989C260.367 14.1084 258.035 14.1442 256.426 14.7121C256.028 14.8152 252.696 16.1011 251.297 19.8896C251.027 20.5081 250.202 23.479 250.893 26.5708C251.998 30.8937 253.625 32.0965 256.586 33.1838C262.743 34.804 268.933 31.4735 269.718 26.356C269.718 26.356 270.84 19.4304 267.507 16.046C267.507 16.046 265.755 14.0989 260.621 14.0989ZM260.349 17.4073C264.768 17.4073 265.335 20.6922 265.335 20.6922C265.927 22.9327 265.603 25.5084 265.603 25.5084C265.319 28.8846 262.71 30.2935 262.007 30.3617C260.335 30.8137 258.347 30.2156 258.351 30.223C255.585 29.4701 255.287 25.7213 255.287 25.7213C255.028 23.8186 255.227 21.9567 255.57 20.7938C255.91 19.6431 256.491 19.0446 256.363 19.1884C257.879 17.359 260.349 17.4073 260.349 17.4073ZM202.323 14.1223C202.323 14.1223 196.83 14.2032 194.492 18.3369C194.492 18.3369 190.128 25.4408 196.554 31.43C197.515 32.1974 199.055 33.5668 203.964 33.4963C205.011 33.4433 206.969 33.725 210.799 30.5531L209.547 28.7699L209.415 28.602C209.316 28.4395 208.764 28.3152 208.303 28.5863L207.161 29.3617C206.522 29.8274 205.731 30.0329 203.86 30.1917C201.175 30.3213 199.253 29.5852 198.023 27.0728C198.023 27.0728 197.603 26.3733 197.603 24.1374C197.605 24.0404 197.584 23.9089 197.808 23.9089H210.401H210.661C210.779 23.9089 210.87 23.9124 210.899 23.8639C210.934 23.8062 210.94 23.5941 210.94 23.4069C210.94 22.5594 210.947 21.5885 210.895 20.8641C210.837 20.001 210.601 19.0168 210.067 17.9346C210.067 17.9346 208.442 14.1223 202.323 14.1223ZM203.122 16.9522C207.236 17.2447 207.212 21.6157 207.124 21.5867H197.655C197.655 16.4623 203.122 16.9522 203.122 16.9522ZM173.282 6.75745V33.2248H177.705V23.7292V23.6003L177.805 23.5944H183.113C183.133 23.5823 183.854 23.6686 186.047 23.2253C188.187 22.8034 190.976 20.5308 191.716 19.2255C192.207 18.3603 193.237 15.2109 192.613 13.093C192.237 11.6443 191.863 10.7895 191.169 9.92911C191.169 9.92911 188.921 6.75741 183.191 6.75741L173.282 6.75745ZM177.748 10.2905H183.393C188.124 10.2905 188.162 14.6457 188.162 14.6457C188.162 18.2448 185.771 19.4228 185.771 19.4228C184.517 20.1612 184.059 20.2334 183.834 20.2431C183.709 20.2483 183.582 20.2457 183.457 20.2431H177.748V10.2905ZM148.888 24.4906C148.888 24.2874 149.063 24.3266 149.313 24.3266H149.899C149.953 24.3262 150.007 24.3211 150.159 24.3326C150.159 24.3326 150.706 24.4102 151.167 24.8766L157.937 33.2623L162.425 33.2663L155.534 24.4135L154.204 22.8567C154.15 22.7756 154.17 22.6746 154.408 22.4341L161.093 15.2228L161.713 14.5955C161.777 14.515 161.939 14.4005 161.578 14.4005H158.4H157.875C157.35 14.4005 157.369 14.362 157.056 14.6795L150.925 21.3588C150.925 21.3588 150.57 21.8411 150.121 21.8411H149.354C149.312 21.8398 149.243 21.8407 149.131 21.8407C149.064 21.8298 148.93 21.8406 148.902 21.6749C148.892 21.6091 148.885 21.5655 148.884 21.3854V6.00399H144.718V33.2645H148.882V24.6807L148.888 24.4906ZM128.06 19.9035C128.06 19.8935 128.06 19.8818 128.061 19.8687C128.058 19.826 128.092 19.699 128.137 19.6124C128.137 19.6124 129.27 17.4109 132.861 17.4109C132.861 17.4109 136.658 17.3136 136.658 20.2448V33.107H140.624V20.7076C140.624 20.3466 140.644 20.0244 140.624 19.6245C140.624 19.6245 140.51 15.6912 136.464 14.604C135.554 14.299 134.001 14.2516 132.928 14.3538C132.928 14.3538 130.497 14.451 128.103 16.8514L128.012 16.967C127.921 17.0825 127.643 17.1312 127.643 16.7207V15.9387V15.5434C127.63 15.2839 127.541 14.6873 126.873 14.6873H123.973V33.107H128.057V19.9551L128.06 19.9035ZM240.403 14.1262C239.937 14.1443 239.432 14.1885 238.886 14.2668C238.886 14.2668 236.371 14.5401 233.042 17.1417C233.042 17.1417 232.561 17.3775 233.077 17.8916L234.487 19.2939C234.62 19.4142 234.98 19.6389 235.788 19.163C236.274 18.8635 238.106 17.8037 239.491 17.4229C239.491 17.4229 242.589 16.5456 243.815 19.5243C243.815 19.5243 244.089 19.9266 244.089 22.114C244.102 22.5826 244.091 22.5906 243.719 22.5906C243.719 22.5906 234.991 22.1364 232.636 26.1978C232.636 26.1978 230.387 29.0255 233.525 32.1487C233.525 32.1487 235.655 34.2985 240.032 33.131C240.032 33.131 242.275 32.7455 243.893 31.1351C243.902 31.121 243.957 31.0661 243.969 31.0511C244.104 30.8934 244.45 30.7109 244.542 31.0647C244.558 31.1289 244.566 31.1608 244.573 31.2503C244.58 31.3418 244.588 31.3518 244.592 31.6096C244.595 32.0759 244.525 32.9631 245.793 32.9631H247.717C247.836 32.9644 248.047 32.9461 248.047 32.715V20.6317C248.055 20.215 247.814 18.6011 247.676 18.2744C247.682 18.2878 246.963 16.4931 245.1 15.214C245.012 15.1728 243.666 13.9995 240.403 14.1262ZM243.635 25.1198C243.739 25.1224 244.032 25.1199 244.032 25.3873V28.4711C244.032 28.5731 243.461 29.5541 242.012 30.0355C241.142 30.3542 238.303 31.2755 237.017 30.2406C237.017 30.2406 235.284 28.9969 236.31 27.229C236.31 27.229 236.718 26.3021 239.159 25.651C239.159 25.651 240.922 25.1198 243.635 25.1198ZM112.549 14.1242C112.083 14.1424 111.577 14.1885 111.031 14.2668C111.031 14.2668 108.516 14.5401 105.188 17.1417C105.188 17.1417 104.706 17.3775 105.223 17.8916L106.633 19.2939C106.766 19.4142 107.123 19.6389 107.932 19.163C108.418 18.8635 110.251 17.8037 111.637 17.4229C111.637 17.4229 114.734 16.5456 115.961 19.5244C115.961 19.5244 116.234 19.9266 116.234 22.114C116.247 22.5826 116.234 22.5886 115.863 22.5886C115.863 22.5886 107.137 22.1364 104.782 26.1978C104.782 26.1978 102.531 29.0255 105.668 32.1487C105.668 32.1487 107.801 34.2965 112.178 33.1291C112.178 33.1291 114.421 32.7435 116.039 31.1331C116.048 31.119 116.102 31.0642 116.115 31.0491C116.249 30.8914 116.596 30.7109 116.687 31.0648C116.704 31.129 116.709 31.1608 116.716 31.2503C116.723 31.3418 116.734 31.3498 116.738 31.6077C116.741 32.0739 116.671 32.9631 117.939 32.9631H119.863C119.981 32.9644 120.193 32.9461 120.193 32.7151V20.6317C120.201 20.215 119.957 18.6011 119.82 18.2744C119.826 18.2879 119.108 16.4931 117.246 15.2141C117.158 15.1729 115.812 13.9976 112.549 14.1242ZM115.779 25.1178C115.883 25.1204 116.177 25.12 116.177 25.3873V28.4692C116.177 28.5712 115.606 29.5541 114.158 30.0355C113.288 30.3542 110.447 31.2755 109.16 30.2406C109.16 30.2406 107.43 28.9969 108.455 27.229C108.455 27.229 108.864 26.3001 111.305 25.649C111.305 25.649 113.065 25.1178 115.779 25.1178ZM81.812 6.80433V33.1057H91.5791C91.5791 33.1057 94.7313 33.2832 97.4577 32.1702C97.4577 32.1702 100.094 31.0958 101.481 28.6645C101.481 28.6645 102.652 26.3884 101.922 23.6335C101.691 23.1541 101.59 22.2716 99.5454 20.7938C99.4982 20.7677 98.3845 19.9035 96.6472 19.9775C96.591 19.9753 96.2789 19.9912 96.2273 19.7997C96.2246 19.7997 96.137 19.5429 96.6042 19.4052C97.5977 19.1381 98.7624 18.532 100.073 17.2061C100.073 17.2061 101.368 16.0953 101.368 13.5969C101.368 13.5969 101.356 11.763 100.276 9.87057C100.276 9.87057 99.4027 8.15546 96.1335 7.26915C95.9168 7.20934 94.1674 6.80433 82.062 6.80433H81.812ZM86.3215 10.2885H92.4306C95.1676 10.2885 96.0495 11.9759 96.0495 11.9759C96.7711 13.2406 96.7936 14.3645 96.7936 14.3645C96.7936 16.2231 95.5457 17.1339 95.5457 17.1339C94.4652 18.0322 92.8607 18.467 92.2724 18.4775C91.5977 18.515 88.4024 18.4775 86.468 18.4775C86.3604 18.4774 86.2996 18.4849 86.3001 18.4522L86.3023 18.3799V10.3198C86.3027 10.3036 86.2948 10.2906 86.3215 10.2885ZM86.2727 21.6238H92.7821C95.6975 21.6238 96.6354 23.3367 96.6354 23.3367C97.404 24.6198 97.4283 25.7604 97.4283 25.7604C97.4283 27.6463 96.0983 28.5707 96.0983 28.5707C94.9474 29.4823 93.2389 29.9213 92.6122 29.932C91.8936 29.9701 88.4913 29.932 86.4309 29.932C86.3163 29.9319 86.2508 29.9399 86.2512 29.9066V29.8344V21.6571C86.2516 21.6405 86.2442 21.6259 86.2727 21.6238Z" fill="black" stroke="black" stroke-width="0.452141" stroke-linejoin="round"/>
</g>
<defs>
<clipPath id="clip0_345_3005">
<rect width="270" height="39.77" fill="white"/>
</clipPath>
</defs>
</svg>
