<svg width="270" height="47" viewBox="0 0 270 47" fill="none" xmlns="http://www.w3.org/2000/svg">
<g opacity="0.2" clip-path="url(#clip0_345_2851)">
<path d="M35.7053 21.6313C35.5919 19.9325 35.1385 18.2337 34.2317 16.7614L26.5239 3.28434C25.9572 2.26506 25.5038 1.13253 25.2771 0L24.937 0.566265C23.0101 3.8506 23.0101 8.04096 24.937 11.3253L31.1713 22.0843C33.0982 25.3687 33.0982 29.559 31.1713 32.8434L30.8312 33.4096C30.6045 32.2771 30.1511 31.1446 29.5844 30.1253L23.9169 20.2723L20.2897 13.9301C19.7229 12.9108 19.2695 11.7783 19.0428 10.6458L18.7028 11.212C16.7758 14.4964 16.7758 18.5735 18.7028 21.9711L24.937 32.7301C26.864 36.0145 26.864 40.2048 24.937 43.4892L24.597 44.0554C24.3703 42.9229 23.9169 41.7904 23.3501 40.7711L15.529 27.294C14.5088 25.4819 14.0554 23.4434 14.0554 21.4048C5.78086 23.5566 0 28.2 0 33.5229C0 40.9976 11.1083 47 24.8237 47C38.539 47 49.6474 40.9976 49.6474 33.5229C49.7607 28.4265 44.0932 23.7831 35.7053 21.6313ZM59.1688 44.6217C59.2821 42.6964 59.5088 41.4506 60.0756 39.8651C62.6826 41.1108 66.0831 41.6771 68.5768 41.6771C72.8841 41.6771 75.3778 40.3181 75.3778 37.4867C75.3778 34.7687 73.5642 33.5229 69.2569 31.5976L66.8766 30.6916C62.4559 28.7663 59.5088 26.2747 59.5088 21.4048C59.5088 16.0819 63.2494 12.6843 70.7305 12.6843C73.7909 12.6843 76.6247 13.1374 79.2317 14.0434C79.1184 15.8554 78.7783 17.3277 78.3249 18.6867C75.8312 17.7807 72.7708 17.3277 70.6171 17.3277C66.5365 17.3277 64.7229 18.9133 64.7229 21.4048C64.7229 23.7831 66.5365 25.2554 69.8237 26.6145L72.3174 27.6337C78.2116 30.1253 80.7053 32.8434 80.7053 37.3735C80.7053 42.6964 76.6247 46.4337 68.6902 46.4337C64.9496 46.4337 61.7758 45.8675 59.1688 44.6217ZM105.756 22.3108V45.641H100.995L100.768 42.8096C99.4081 44.8482 97.4811 46.2072 94.194 46.2072C88.0731 46.2072 83.8791 41.6771 83.8791 33.8626C83.8791 25.7084 88.2998 20.9518 96.9144 20.9518C100.315 21.0651 103.149 21.4048 105.756 22.3108ZM100.655 40.3181V25.7084C99.6348 25.4819 98.3879 25.4819 96.9144 25.4819C91.5869 25.4819 89.0932 28.7663 89.0932 33.9759C89.0932 38.7325 91.0202 42.1301 95.5542 42.1301C97.7078 42.0169 99.2947 41.3373 100.655 40.3181ZM132.053 30.012V45.641H126.952V30.9181C126.952 27.1807 125.705 25.4819 120.605 25.4819C119.358 25.4819 117.997 25.5952 116.524 25.8217V45.641H111.423V22.3108C114.71 21.5181 118.338 20.9518 120.718 20.9518C129.333 21.0651 132.053 24.3494 132.053 30.012ZM146.335 41.9036C147.809 41.9036 149.282 41.6771 150.302 41.2241C150.189 42.5831 149.962 44.1687 149.736 45.5277C148.375 46.094 146.788 46.3205 145.428 46.3205C140.441 46.3205 137.267 44.0554 137.267 38.3928V13.8169C138.854 13.2506 140.781 13.0241 142.368 13.0241V21.8578H150.529C150.416 23.4434 150.302 24.9157 150.076 26.2747H142.368V37.7133C142.368 40.6578 143.841 41.9036 146.335 41.9036ZM173.879 22.3108V45.641H169.118L168.892 42.8096C167.531 44.8482 165.605 46.2072 162.317 46.2072C156.196 46.2072 152.003 41.6771 152.003 33.8626C152.003 25.7084 156.423 20.9518 165.038 20.9518C168.438 21.0651 171.159 21.4048 173.879 22.3108ZM168.665 40.3181V25.7084C167.645 25.4819 166.398 25.4819 164.924 25.4819C159.597 25.4819 157.103 28.7663 157.103 33.9759C157.103 38.7325 159.03 42.1301 163.564 42.1301C165.718 42.0169 167.418 41.3373 168.665 40.3181ZM200.176 30.012V45.641H194.962V30.9181C194.962 27.1807 193.715 25.4819 188.615 25.4819C187.368 25.4819 186.008 25.5952 184.534 25.8217V45.641H179.433V22.3108C182.72 21.5181 186.348 20.9518 188.728 20.9518C197.343 21.0651 200.176 24.3494 200.176 30.012ZM226.134 13.0241V45.641H221.373L221.146 42.6964C219.786 44.8482 217.859 46.2072 214.458 46.2072C208.338 46.2072 204.144 41.6771 204.144 33.8626C204.144 25.7084 208.564 20.9518 217.179 20.9518C218.539 20.9518 219.786 21.0651 221.033 21.2916V13.5904C222.62 13.1373 224.433 13.0241 226.134 13.0241ZM221.033 40.3181V25.9349C219.673 25.7084 218.312 25.4819 216.952 25.4819C211.851 25.4819 209.471 28.653 209.471 33.9759C209.471 38.7325 211.398 42.1301 215.932 42.1301C217.972 42.0169 219.673 41.3373 221.033 40.3181ZM251.977 35.6747H235.542C236.222 39.8651 238.602 41.7904 243.249 41.7904C246.083 41.7904 248.917 41.2241 251.411 39.9783C251.184 41.3373 250.957 43.1494 250.617 44.6217C248.237 45.641 245.856 46.094 243.023 46.094C234.408 46.094 230.327 41.3373 230.327 33.4096C230.327 26.5012 233.501 20.9518 241.662 20.9518C249.03 20.9518 252.204 25.7084 252.204 31.5976C252.204 33.1831 252.204 34.3157 251.977 35.6747ZM235.542 31.3711H247.103C247.103 27.5205 245.063 25.2554 241.549 25.2554C237.809 25.3687 235.882 27.4072 235.542 31.3711ZM270 21.2916C270 22.8771 269.773 24.6892 269.547 25.7084C268.3 25.5952 267.166 25.4819 265.693 25.4819C264.446 25.4819 263.199 25.5952 261.952 25.7084V45.641H256.851V22.3108C259.005 21.5181 262.746 20.9518 265.579 20.9518C267.053 21.0651 268.867 21.0651 270 21.2916Z" fill="#EA1D25"/>
</g>
<defs>
<clipPath id="clip0_345_2851">
<rect width="270" height="47" fill="white"/>
</clipPath>
</defs>
</svg>
