<svg width="12" height="12" viewBox="0 0 12 12" fill="none" xmlns="http://www.w3.org/2000/svg">
<g id="iconamoon:star-fill" clip-path="url(#clip0_59_3187)">
<path id="Vector" fill-rule="evenodd" clip-rule="evenodd" d="M6.454 0.790515C6.41398 0.703783 6.34996 0.63033 6.2695 0.578845C6.18904 0.527361 6.09552 0.5 6 0.5C5.90448 0.5 5.81096 0.527361 5.7305 0.578845C5.65005 0.63033 5.58602 0.703783 5.546 0.790515L4.111 3.90052L0.710501 4.30401C0.615626 4.31522 0.525947 4.35337 0.452076 4.41394C0.378205 4.47452 0.323235 4.555 0.293672 4.64584C0.26411 4.73669 0.261192 4.8341 0.285263 4.92655C0.309335 5.019 0.359389 5.10262 0.429501 5.16751L2.9445 7.49251L2.277 10.8525C2.25846 10.9462 2.26713 11.0432 2.30197 11.1321C2.33682 11.221 2.39639 11.298 2.47364 11.3541C2.5509 11.4103 2.6426 11.4431 2.73791 11.4487C2.83323 11.4544 2.92816 11.4326 3.0115 11.386L6 9.71302L8.9885 11.386C9.07189 11.4328 9.16695 11.4547 9.26241 11.4491C9.35787 11.4435 9.44972 11.4107 9.52708 11.3545C9.60444 11.2983 9.66406 11.2211 9.69888 11.132C9.73369 11.043 9.74224 10.9458 9.7235 10.852L9.056 7.49301L11.5705 5.16751C11.6406 5.10262 11.6907 5.019 11.7147 4.92655C11.7388 4.8341 11.7359 4.73669 11.7063 4.64584C11.6768 4.555 11.6218 4.47452 11.5479 4.41394C11.4741 4.35337 11.3844 4.31522 11.2895 4.30401L7.8885 3.90002L6.454 0.790515Z" fill="#AB1D22"/>
</g>
<defs>
<clipPath id="clip0_59_3187">
<rect width="12" height="12" fill="white"/>
</clipPath>
</defs>
</svg>
