<svg width="36" height="36" viewBox="0 0 36 36" fill="none" xmlns="http://www.w3.org/2000/svg">
<g id="users-group 1">
<g id="Group">
<path id="Vector" d="M9.88042 6.1166C9.88042 3.56806 11.9465 1.50195 14.4954 1.50195C17.0439 1.50195 19.1102 3.56806 19.1102 6.1166C19.1102 8.66515 17.0439 10.7312 14.4954 10.7312C11.9465 10.7313 9.88042 8.66515 9.88042 6.1166ZM16.7131 13.8751C16.7594 12.8703 17.1053 11.9403 17.6618 11.1714C17.2713 11.0896 16.8676 11.0461 16.4534 11.0461H12.538C12.125 11.0461 11.7218 11.0893 11.3333 11.17C11.9255 11.9915 12.2797 12.9947 12.2855 14.0808C13.0054 13.6848 13.8314 13.4594 14.7088 13.4594C15.4205 13.4594 16.0981 13.6077 16.7131 13.8751ZM17.4943 14.2893C18.8347 15.1299 19.7747 16.5517 19.9466 18.2028C20.4928 18.458 21.0997 18.6053 21.7427 18.6053C24.091 18.6053 25.9944 16.7017 25.9944 14.3535C25.9944 12.005 24.091 10.1018 21.7427 10.1018C19.4159 10.1019 17.5296 11.9713 17.4943 14.2893ZM14.7088 22.9951C17.0566 22.9951 18.9602 21.091 18.9602 18.7434C18.9602 16.3955 17.0566 14.4918 14.7088 14.4918C12.3607 14.4918 10.4563 16.3955 10.4563 18.7434C10.4564 21.091 12.3607 22.9951 14.7088 22.9951ZM16.5123 23.2845H12.9049C9.90326 23.2845 7.46068 25.7269 7.46068 28.7289V33.1412L7.47217 33.2103L7.77584 33.3047C10.6406 34.1995 13.1293 34.4987 15.178 34.4987C19.1785 34.4987 21.4982 33.3579 21.6411 33.2849L21.9253 33.1411H21.9554V28.7288C21.9555 25.7269 19.5143 23.2845 16.5123 23.2845ZM23.5472 18.8955H19.9669C19.928 20.328 19.3166 21.6181 18.3497 22.5454C21.0179 23.3388 22.9701 25.8129 22.9701 28.7356V30.0952C26.5044 29.965 28.5415 28.9639 28.6757 28.8964L28.9599 28.7519H28.9901V24.3388C28.9905 21.3375 26.5481 18.8955 23.5472 18.8955ZM24.5042 10.0111C25.8447 10.8519 26.7846 12.2737 26.9561 13.9248C27.5024 14.18 28.1093 14.327 28.7523 14.327C31.101 14.327 33.0043 12.4237 33.0043 10.0758C33.0043 7.72726 31.101 5.82414 28.7523 5.82414C26.4258 5.82387 24.5396 7.69368 24.5042 10.0111ZM30.5563 14.6173H26.9767C26.9379 16.0498 26.3266 17.3399 25.3596 18.2671C28.0278 19.0603 29.98 21.5347 29.98 24.4574V25.817C33.514 25.6871 35.5515 24.6861 35.6856 24.6181L35.9694 24.4741H36V20.0604C36.0004 17.0594 33.558 14.6173 30.5563 14.6173ZM7.24854 18.6054C8.08033 18.6054 8.85375 18.3624 9.50966 17.9488C9.71824 16.5895 10.447 15.4014 11.4877 14.5927C11.492 14.5129 11.4993 14.4341 11.4993 14.3536C11.4993 12.0051 9.59542 10.1019 7.24854 10.1019C4.89965 10.1019 2.99654 12.005 2.99654 14.3536C2.99654 16.7022 4.89958 18.6054 7.24854 18.6054ZM11.0669 22.5454C10.1045 21.6225 9.49515 20.3395 9.45029 18.9153C9.31793 18.9054 9.18651 18.8955 9.05119 18.8955H5.44421C2.44217 18.8955 0 21.3375 0 24.3392V28.7519L0.0111478 28.8206L0.315227 28.9154C2.61288 29.6339 4.66427 29.9641 6.44597 30.0673V28.7352C6.4463 25.813 8.39804 23.3384 11.0669 22.5454Z" fill="#03466E"/>
</g>
</g>
</svg>
