<svg width="36" height="37" viewBox="0 0 36 37" fill="none" xmlns="http://www.w3.org/2000/svg">
<g clip-path="url(#clip0_345_1797)">
<path d="M35.7229 31.7517L19.9713 3.10249C19.571 2.37531 18.8337 1.94043 18 1.94043C17.1663 1.94043 16.429 2.37531 16.0287 3.10249L0.277125 31.7517C-0.104463 32.4501 -0.0915253 33.2737 0.313125 33.9563C0.720658 34.6475 1.44495 35.0593 2.24982 35.0593H33.7502C34.5551 35.0593 35.2794 34.6475 35.6869 33.9563C36.0915 33.2737 36.1045 32.4501 35.7229 31.7517ZM17.6444 13.4903C17.7653 13.4701 17.8848 13.4601 18.0029 13.4601C19.0397 13.4601 19.954 14.2016 20.1297 15.2456C20.1715 15.4832 20.1671 15.7251 20.1297 15.9497L18.7099 24.3835C18.6508 24.732 18.3456 24.9796 18.0014 24.9796C17.9625 24.9796 17.9208 24.9767 17.8819 24.9696C17.5694 24.9177 17.339 24.6758 17.2901 24.3835L15.8703 15.9497C15.6731 14.7848 16.4694 13.6832 17.6444 13.4903ZM18 30.7394C16.8092 30.7394 15.8401 29.7704 15.8401 28.5795C15.8401 27.3886 16.8091 26.4195 18 26.4195C19.1909 26.4195 20.16 27.3887 20.16 28.5795C20.16 29.7703 19.1908 30.7394 18 30.7394Z" fill="#03466E"/>
</g>
<defs>
<clipPath id="clip0_345_1797">
<rect width="36" height="36" fill="white" transform="translate(0 0.5)"/>
</clipPath>
</defs>
</svg>
